<?xml version="1.0" encoding="UTF-8"?>
<svg id="Layer_2" data-name="Layer 2" xmlns="http://www.w3.org/2000/svg" xmlns:xlink="http://www.w3.org/1999/xlink" version="1.1" viewBox="0 0 1024 600">
  <defs>
    <style>
      .cls-1 {
        fill: #00a651;
      }

      .cls-1, .cls-2, .cls-3, .cls-4, .cls-5, .cls-6, .cls-7, .cls-8 {
        stroke-width: 0px;
      }

      .cls-2 {
        fill: #a70240;
      }

      .cls-9 {
        clip-path: url(#clippath);
      }

      .cls-3 {
        fill: none;
      }

      .cls-10 {
        clip-path: url(#clippath-1);
      }

      .cls-11 {
        clip-path: url(#clippath-4);
      }

      .cls-12 {
        clip-path: url(#clippath-3);
      }

      .cls-13 {
        clip-path: url(#clippath-2);
      }

      .cls-14 {
        clip-path: url(#clippath-5);
      }

      .cls-4 {
        fill: #000;
      }

      .cls-5 {
        fill: #0078d0;
      }

      .cls-6 {
        fill: #ffb114;
      }

      .cls-7 {
        fill: #003c7f;
      }

      .cls-8 {
        fill: #f0282d;
      }
    </style>
    <clipPath id="clippath">
      <rect class="cls-3" x="449.2" y="106.4" width="125.6" height="57.9"/>
    </clipPath>
    <clipPath id="clippath-1">
      <rect class="cls-3" x="449.2" y="106.4" width="125.6" height="57.9"/>
    </clipPath>
    <clipPath id="clippath-2">
      <rect class="cls-3" x="449.2" y="106.4" width="125.6" height="57.9"/>
    </clipPath>
    <clipPath id="clippath-3">
      <rect class="cls-3" x="449.2" y="106.4" width="125.6" height="57.9"/>
    </clipPath>
    <clipPath id="clippath-4">
      <rect class="cls-3" x="449.2" y="106.4" width="125.6" height="57.9"/>
    </clipPath>
    <clipPath id="clippath-5">
      <rect class="cls-3" x="449.2" y="106.4" width="125.6" height="57.9"/>
    </clipPath>
  </defs>
  <g id="Artwork-2">
    <g id="Host">
      <rect class="cls-4" x="413.2" y="203.7" width="197.7" height="1.3"/>
      <path id="Queensland" class="cls-2" d="M518.3,346.1v-.3c.2-.3,1.6-2.3,1.6-3.2s-.6-1-1.3-1.1c-.6,0-1.3.2-1.8.5-.6.3-.8.3-1.3.6s-.8.8-.8,1.4.2,1,.5,1.3c.3.5,1,.8.8,1.1s-.6,1-.8,1.3c-.5.5-.8,1.1-1.1,1.8-.5.6-1,1.3-1.6,1.8-.2,0-.5-.3-.2-1.8,0-.3.2-1.1.3-1.3.2-.3.2-.6.2-1s-.2-.8-.3-1.1c-.2-.2-.3-.5-.5-.6-.2-.2-.5-.5-.8-.6s-.6-.2-1-.3c-.5,0-1,0-1.4.3-.3.2-.6.3-1,.6-.3.2-.2,0-.3-.3,0-.2-.2-.5-.3-.5-.2-.2-.5-.3-.8-.3-.3-.2-.6,0-1,.2-.2.2-.2.8-.3,1-.2.6-.5,1.3-.8,1.8-.5,1-1.1,1.9-1.9,2.6-.6.5-1.3,1-1.9,1.3-.5.2-.6.2-1-.5-.2-.2-.2-.3,0-.5.5-.3,1-.8,1.4-1.3.8-.6,1.3-1.4,1.8-2.3.5-1.1.5-2.1-.5-2.9-1.1-.8-2.4-1-3.5-.3-.5.2-.8.5-1.1,1-.3.3-.6.8-.8,1.3-.2.8-.3,1.4-.2,2.3.2.5.3,1,.5,1.3v.2c.2.2.2.5.2.5-.5.5-1,.8-1.4,1.1-.5.3-1.1.6-1.8.8-.3.2-.8.3-1.1.2-.3-.2-.6-.3-.8-.8-.6-1-1-2.1-.8-3.2l.2-.2c.5.2,1,.2,1.3,0,.5-.2,1-.6,1.4-1.1.8-.6,1.8-2.3,1.8-3.1-.2-1.3-.5-1.8-2.1-2.1h-.5c-.5,0-.8.2-1.1.2-.5.2-1.1.3-1.6.8s-.5.8-.8,1.3-.5,1.1-.6,1.8c0,.2,0,.3-.2.5-.2.6-.2,1.1-.2,1.8s.2,1.6.3,2.4c.3.8,1,1.4,1.8,1.9.8.6,1.8.8,2.7,1h0c1.1,0,3.2-1.1,4.3-1.8h.2c.5.5,1.1.8,1.9,1s1.6,0,2.4-.5c.5-.2.8-.5,1.1-.8.6-.6,1-1,1.1-1,.3,0,.2.3.2.6s0,.6.3.8c.2.2.3.2.5.2.3,0,.5,0,.6-.2.2-.2.3-.5.5-.6.3-.8.6-1.6,1.1-2.3.5-.8,1.1-1.4,1.8-2.1,1.6-1.1.6,1.4.5,1.9-.3,1-.3,1.9-.2,2.9.3.8,1.1,1.3,2.1,1.3s.6-.2,1-.3c.6-.3,1.1-.6,1.4-1.3.3-.3.6-1.1,1-1.6.3-.3.6-.8.8-1,.3-.3.5-.6.6-1.1h.2c.5.3.8.8,1.1,1.3s.5,1,.6,1.4c0,.5-.2.8-.5,1.1-.5.5-1.3.6-1.9.2-.3-.3-.5-.8-.8-1-.2,0-.3.2-.5.2v.6c.2.5.5.8.8,1.1.8.6,1.9,1,3.1.8.3,0,2.1-.6,2.3-2.1.3-1.1,0-2.6-1-3.4-1-.3-1.9-1.1-2.1-1.4ZM491.7,346.8c0-.2.2-.5.2-.6s.2-.3.2-.3c0-.2.2-.3.2-.3,0-.2.2-.2.2-.3l.2-.2c.2-.5.5-1,.8-1.4l.5-.5c.2-.2.5-.2.6,0,.2.2.2.3.2.5-.2,1.1-.6,2.3-1.6,2.9-.3.3-.6.5-.8.6l-.2.2q-.3-.3-.3-.5h0ZM499.4,348.7v-.2c-.2-1.1,0-2.3.5-3.2.2-.5,1-1,1.4-.8l.2.2c.2.2-.2,1.1-.5,1.6-.3.6-.6,1.3-1.1,1.8l-.3.3c0,.2,0,.3-.2.3ZM517.1,343.7c.5-.3.8-.6,1.4-.8.3,0-1.1,1.8-1.1,1.8-.5-.3-.6-.8-.3-1ZM486,353.2c-.2,0-1,.5-1.3.5-.3.2-.6.5-1.8.8-1.8.8-2.4.5-3.7.2-.8-.2-1.8-.6-2.4-1.1-.8-.5-1.1-.8-1.6-1.1-.2-.2-1.1-1-1.1-1l1.1-1.1c.3-.3.8-.8,1.1-1.4s.5-.5.6-.8c.3-.5.5-.8.6-1.1.3-.5.5-.8.8-1.4.5-.8.8-1.6,1.1-2.4.5-1.1.8-2.4,1-3.5.2-1.4.2-3.1-.2-4.5-.2-1.3-.6-2.6-1.4-3.5-1.4-1.8-3.4-2.7-5.6-2.9-2.6.2-5,1.1-6.8,2.9-1.9,2.1-3.5,4.5-4.5,7.2-.2.6-.5,1.4-.8,2.3-.2.3-.2.5-.2.8s0,.6-.2,1.1c-.2,1.3-.2,2.4-.2,2.4,0,.8,0,1.6.2,2.4.2.6.5,1.1.8,1.6l.2.2c.2.2.5.2.6.2.6-.3,1.3-.8,1.6-1.4.2-.2.2-.6-.2-.8-.5-.5-.8-1.1-.8-1.9-.2-2.7-.2-5,2.1-9.3.5-.8.8-1.4,1.1-1.9.2-.2.2-.3.3-.5s.3-.3.3-.5c.6-1.1,1.6-1.9,2.6-2.7,1.1-.5,2.3-.5,3.4-.2.6.2,1.3.5,1.9,1,.8.5,1.4,1.1,1.8,2.1.6,1.1,1,2.4,1,3.5.2,1.8,0,3.4-.6,5s-.6,1.8-1.1,2.6c-.3.8-.8,1.8-1.4,2.4l-.8,1.3c-.5.8-1.1,1.4-1.9,2.1,0,0-.6-.5-1.3-.8-.3-.2-.6-.5-1-.6-.3-.2-.8-.3-1.1-.5-.5-.2-.8-.2-1.3-.2s-1.3.2-1.8.5c-.5.3-.8.8-1,1.1-.3.8-.3,1.8.2,2.6.3.5.8,1,1.4,1.1.6.3,1.4.5,2.1.5,1.1.2,2.1-.2,3.1-.6l.5-.2c1,.8,2.1,1.4,3.2,1.9.2.2.3.2.5.2s.2,0,.3.2c.2,0,.2.2.3.2,1.4.6,3.1.8,4.7.8s1.4,0,2.1-.2c.5-.2.8-.2,1.3-.5.3-.2.8-.5,1.1-.6,1.1-.8,1.9-2.1,1-1.9ZM468.4,352.1c-.6.2-1.3,0-1.8-.5-.3-.2-.6-.2-.6-1s.5-.8,1.3-.6,1.4.3,2.3.8l.8.5c-.6.5-1.3.6-1.9.8h0ZM488.1,346.1c.2.2.3.5.2,1.1-.2.3-.2.6-.3,1v1.1c0,.6.2,1.3.2,1.9.2.5-.2.8-1.1.2-.3-.2-.5-.3-.6-.5-.2-.2-.2-.3-.2-.5s0-.3-.2-.5c-.5.8-1.1,1.4-1.8,2.1s-.6.5-1,.6c-.5.2-1,0-1.4-.3-.3-.2-.6-.5-.8-.8-.2-.2-.5-.5-.5-.8,0-.5,0-.8.2-1.3,0-.3.2-.8.2-1.1s.2-.8.2-1.1-.6.6-2.1.2c-.3-.2-.2-.2.5-.8.6-.6,1.3-1.3,1.8-2.1.3-.5.6-1.1,1-1.6.3-.3.6-.6,1.1-.8.6,0,1.3.2,1.8.5.3.2.5.5.3.6-.2.3-.3.3-.5.8-.3.3-.5.8-.8,1.1-.8,1.6-1.3,3.4-1.3,5.3,0,0,0,.2.2.2s.3-.3.5-.5c.5-.6,1.1-1.8,1.4-2.3.3-.5,1-1.4,1.1-1.8.2-.3.5-.5.8-.5.8.2,1.1.2,1.3.5h0ZM562.6,333.6c.2-.8,0-1.4-.3-2.3-.3-.6-1-1.1-1.8-1.1s-1.1.3-1.4.8c-.6.8-1.1,1.4-1.4,2.4-.2.3-.6,1.6-.8,1.8-.3.8-.5,1.8-.8,2.6-.3,1.1-.5,2.1-.6,2.7,0,.3-.2.5-.2.8-.2.3-.2.5-.2.8s-.2.5-.2.6c-.2.3-.2.5-.2.5q-.2.3-.5.3l-.8-.2c-.5,0-1.1,0-1.6.2-.8.5-1.4,1-2.1,1.8-.5.3-.8.8-1.1,1.4-.2.3-.3.8-.3,1.1-.2.6-.5,1.4-.8,2.1-.2.3-1.1,1.4-1.8,1.4s-.5-.3-.3-.6v-.5c0-.2.2-.3.2-.5,0-.3.2-.6.2-1,.2-.5.3-1,.5-1.4.2-.3.2-.8.2-1.1.2-.5,0-1-.3-1.4-.3-.5-.8-.8-1.4-.8-1-.2-1.8.2-2.4.8s-.3.5-.5.3c-.2,0-.2-.6-.3-.8-.5-.2-1-.3-1.4-.2-.5.3-.8.8-.8,1.3s0,.8-.2,1.1-.3.8-.3,1.3c-.3,1.4-.6,2.9-1.8,2.9s-.8-1.8-.8-1.8c-.2-.6-.2-1.1,0-1.8v-.2c.2-.3.2-.6.2-1.1v-.8c0-.2-.2-.2-.2-.3-.5-.3-1.1-.3-1.6-.2h0c-.3,0-.5.3-.6.6-.2.3-.3.6-.5,1,0,.2-.2.3-.2.3-.2.5-.5,1-.8,1.4-.2.2-.3.5-.5.8-.2,0-.2.2-.2.2-1.1,1.4-1.4,1.3-1.4,1.3-.2-.2-.2-.3-.2-.5s0-.3.2-.5c0-.2.2-.3.2-.5.2-1,.5-1.8,1.1-2.6.5-.8,1.1-1.6,1.8-2.3.3-.5.8-.8,1.1-1,.5-.2.6-.3,1,0,.2.3.6.5,1,.3.3,0,.6-.3.6-.6s0-.2-.2-.3c-.2-.3-.5-.5-1-.5-.5-.2-1-.2-1.4-.2s-1,.2-1.4.3c-.5.3-1,.6-1.3,1-.8.8-1.6,1.8-2.3,2.7-.5.8-1,1.9-1.1,2.9v.2c-.2.5-.2,1.1,0,1.6s.6,1.1,1.1,1.4l.2.2c.5.2.5.3,1,.3s.8-.2,1.1-.2c.5-.2,1-.3,1.3-.8.3-.3,1-1.1,1.3-1.4h0s.2-.3.3-.3c0,0,.2.3.5.8.3.3.8.6,1.3.8,0,0,.6.2.8.2.8.3,1.8.3,2.6-.2.3-.2.5-.5.6-.6.2-.5.5-1,.6-1.4,1-1.6,1.3-2.6,2.3-3.2.3,0,.5.2.6.3v.3c-.6,2.1-.6,3.7.2,4.8.2.3.8,1.1,1.4,1.1,1,0,1.9-.5,2.6-1.1l.8-.8.2-.2.2.2c0,.2.2.2.2.2.2.3.5.5.8.6.8.6,2.1.6,2.9-.2.2,0,.5-.5.5-.5.3-.3,1-.8,1.1-1.1.2.8.5,1.8.8,2.6.2.2.3.5.5.6.2.2.2.5.5.6.5.6,1.1,1,1.9,1.1.3,0,.8,0,.8-.5s-.2-.3-.5-.8c-.6-1.1-1-2.4-1.1-3.5-.3-2.3-.3-3.5,0-3.9.6-1,1.3-1.8,1.9-2.9.5-.8.8-1.4,1.3-2.3s.8-1.4,1.1-2.3c.2-.3.6-1.4.8-1.8.2-.5.2-1.1.3-1.8-.5-.3-.5-1.1-.5-1.4h0ZM554.4,346.9c-.5,1-1.1,1.9-1.9,2.7l-.3.3c-.5.5-.8.8-1.1.8s-.2,0-.3-.2c-.3-.3,0-1.4.3-2.3.6-1.3,1.6-2.6,2.6-3.5.3-.2.6-.2,1-.2.3.2.2.8-.2,2.3h0ZM559.5,338.6c-.2.8-.5,1.4-1,2.1-.2.5-.5.8-.8,1.1s-.3.3-.5.3v-.5c.3-2.1.8-4,1.4-5.9.6-1.6,1.1-3.4,1.4-3.9q.2-.2.3-.2h.2c.6.2.8,2.1-1.1,6.9h0ZM533.5,353.9c-.2,0-.8.5-.8.5-.8.3-1.4.6-2.3.8-.5.2-1.1.2-1.6,0-.6-.2-1.1-.6-1.6-1.1-.5-.6-.8-1.4-1-2.3-.2-.5-.2-1-.2-1.4v-1.4c.2-.6.3-1.4.3-2.1s0-1,.2-1.3c.2-.5.2-1,.5-1.4.3-.5.6-.8,1-1.3l.2-.2c.3-.5,1.4-1.8,2.3-2.9.5-.5,1-1.1,1.1-1.3.5-.6,1.3-2.1,1.6-2.7,0,0,.6-1.1.8-1.8.2-.2.2-.5.3-.6,0-.2.5-1.1.5-1.4.2-.5.2-1,.2-1.4.2-1,.2-2.1-.3-3.1-.2-.5-1.1-.8-1.3-1-.6-.3-1.4-.3-2.1.2-1.1.5-1.9,1.3-2.6,2.4-.2.3-.3,1-.5,1.4-.2.2-.2.3-.3.5-.5.8-.6,1.8-1,2.6-.2.3-.8,2.6-1.1,3.5-.2.3-.3,1.3-.5,2.1-.2,1-.5,1.9-.5,2.3-.2.5-.3,1.1-.3,1.8h0c-1,1.3-1.8,2.3-1.9,2.6l-.3.3c-.2.3-.5.6-.5.8,0,.3.8.2,1,.2.3-.2.5-.2.8-.3l.2-.2h.2s.2,0,.2.2v.8c0,.2-.2.8-.2.8v3.1c.2,1,.5,1.8,1.1,2.6.2.3.6.5,1,1,.2.2.5.5.8.6,1.1.8,2.6,1.1,3.9,1,.8,0,1.6-.2,2.4-.5.5-.3,1-1,1.3-1.4.3-1.3-.6-.6-.8-.6h0ZM527.4,339.4h0c.2-.3,1.4-4.8,2.3-6.9.3-.8,1.6-4.3,2.4-4.8.2,0,.2-.2.3-.2h0q.2,0,.3.2c.2.2.3.5.3.8-.2,1.6-.5,3.2-1,4.7-.6,1.8-1.4,3.2-2.6,4.8-.5.6-1.4,1.9-2.1,1.9h-.2q.2-.2.2-.5h0Z"/>
      <path class="cls-4" d="M424.6,284.9c-.6-.6-1.3-1.1-2.1-1.4-1.8-.6-3.7-.6-5.5,0-.8.3-1.6.8-2.1,1.4-.6.6-1.1,1.4-1.4,2.3-.6,1.8-.6,3.7,0,5.5.3.8.8,1.6,1.4,2.3s1.3,1.1,2.1,1.4c1.8.6,3.7.6,5.5,0,.8-.3,1.6-.8,2.1-1.4.6-.6,1.1-1.4,1.4-2.3.6-1.8.6-3.7,0-5.5-.3-.8-.8-1.6-1.4-2.3ZM424.3,291.8c-.2.6-.5,1.1-1,1.6-1.8,1.9-5,2.1-6.9.2l-.2-.2c-.5-.5-.8-1.1-1-1.6-.5-1.3-.5-2.7,0-4,.2-.6.5-1.1,1-1.6,1.8-1.9,5-2.1,6.9-.2l.2.2c.5.5.8,1.1,1,1.6.5,1.4.5,2.7,0,4ZM429,282.5h1.6v14h-1.6v-14ZM439.3,287.6h1.8l-4.2,10.6c-.2.3-.3.6-.5,1.1-.2.3-.3.5-.5.8-.2.2-.5.5-.8.5-.3.2-.8.2-1.1.2h-.8c-.3,0-.5-.2-.8-.2l.2-1.4c.3.2.6.2,1,.2s.5,0,.6-.2c.2,0,.3-.2.5-.3.2-.2.2-.3.3-.5s.2-.3.3-.6l.5-1.4-3.5-8.8h1.9l2.6,6.8h0l2.6-6.6ZM455.7,289.9c.2.5.2,1,.2,1.4v5.1h-1.6v-5.8c0-.3-.2-.5-.3-.8-.2-.2-.3-.5-.6-.5-1-.5-2.1-.2-2.7.5-.3.5-.5,1.3-.5,1.9v4.8h-1.6v-5.6c0-.3-.2-.6-.3-1-.2-.2-.3-.5-.5-.6-.3-.2-.6-.2-1-.2s-.6,0-.8.2c-.3.2-.5.3-.8.5-.2.3-.5.5-.5,1-.2.5-.2.8-.2,1.3v4.5h-1.8v-8.7h1.6v1.4h0c0-.2.2-.3.3-.5s.3-.3.6-.5c.3-.2.5-.3.8-.5s.8-.2,1.1-.2c.6,0,1.1.2,1.6.5s.8.8,1.1,1.3c.3-.5.6-1,1.1-1.3.5-.3,1-.5,1.6-.5s1.1.2,1.6.3c.5.2.8.5,1,.8.2.2.3.5.5,1ZM465,296.3c.5-.2,1-.5,1.4-1s.6-1,1-1.4c.5-1.1.5-2.4,0-3.5-.2-.5-.5-1.1-1-1.4-.5-.5-.8-.8-1.4-1s-1.1-.3-1.8-.3-1.1.2-1.8.3c-.5.2-1,.6-1.3,1.1h0v-1.3h-1.6v14h1.6v-6.4h0c.3.5.8.8,1.3,1.1s1.1.5,1.8.5c.5-.3,1.1-.5,1.8-.6ZM461.6,294.9c-.3-.2-.6-.3-1-.6s-.5-.6-.6-1c-.3-.8-.3-1.6,0-2.4.2-.3.3-.6.6-1,.3-.3.5-.5,1-.6.8-.3,1.6-.3,2.4,0,.3.2.6.3,1,.6s.5.6.6,1c.3.8.3,1.6,0,2.4-.2.3-.3.6-.6,1s-.5.5-1,.6c-.6.3-1.6.3-2.4,0ZM469.6,287.6h1.6v8.7h-1.6v-8.7ZM469.6,285.4c-.5-.5-.5-1.3,0-1.8s1.3-.5,1.8,0c.5.5.5,1.3,0,1.8-.2.2-.5.3-.8.3-.5,0-.8-.2-1-.3h0ZM476.2,296.3c-.5-.2-1.1-.5-1.4-1-.5-.5-.8-1-1-1.4-.2-.6-.3-1.3-.3-1.9s.2-1.3.3-1.9c.5-1.1,1.3-1.9,2.4-2.4.6-.2,1.3-.3,1.9-.3s1.3.2,1.8.3c.6.2,1.1.6,1.4,1.1l-1.3,1.1c-.3-.3-.6-.5-1-.8-.3-.2-.8-.3-1.1-.2-.5,0-.8.2-1.1.2-.3.2-.6.5-.8.6-.2.3-.5.6-.5,1-.2.3-.2.8-.2,1.1,0,.5,0,.8.2,1.1s.3.6.6,1c.2.3.5.5.8.6.3.2.8.2,1.1.2.5,0,.8-.2,1.1-.2.3-.2.6-.5,1-.8l1.1,1.1c-.5.5-1,.8-1.4,1.1-.6.2-1.1.3-1.8.3-.8.3-1.4.2-1.9,0h0ZM487.2,296c.3.2.6.5,1,.5.3.2.8.2,1.1.2.6,0,1.1-.2,1.8-.3.5-.3,1-.6,1.3-1.1h0v1.3h1.4v-6.1c0-.3-.2-.8-.2-1.1-.2-.3-.3-.6-.6-1-.3-.3-.8-.5-1.1-.6-.5-.2-1.1-.3-1.6-.2-.6,0-1.3.2-1.8.3-.6.2-1.1.5-1.6,1l1,1.1c.2-.2.3-.2.5-.3.2-.2.3-.2.5-.3.2-.2.5-.2.6-.2.3,0,.5-.2.8-.2s.6,0,1,.2c.2.2.5.2.6.5.2.2.3.3.3.6.2.2.2.5.2.6v.3h-1.3c-.6,0-1.3,0-1.9.2-.5.2-1.1.3-1.6.5s-.8.5-1.1,1c-.5.8-.5,1.8-.2,2.6.3.2.6.5,1,.6h0ZM488.1,292.9c.2-.2.5-.5.8-.5.3-.2.8-.2,1.1-.2h1.9v.5c0,.3,0,.6-.2,1-.2.3-.2.6-.5.8-.2.3-.5.5-.8.6-.3.2-.8.2-1.1.2-.5,0-1-.2-1.4-.3-.3-.2-.5-.6-.5-1.1.3-.3.5-.6.6-1h0ZM501.8,289.6c-.2-.2-.5-.3-.6-.3-.2-.2-.5-.2-.8-.2s-.6,0-1,.2c-.3.2-.5.3-.8.5-.2.3-.5.6-.5,1-.2.5-.2.8-.2,1.3v4.5h-1.6v-8.7h1.6v1.3h0c.2-.5.6-.8,1.1-1.1s1.1-.5,1.8-.5.8,0,1.1.2.8.3,1,.6c.3.3.5.6.6,1.1.2.5.3,1,.3,1.4v5.6h-1.6v-5.1c0-.3,0-.6-.2-1.1,0-.3-.2-.5-.3-.6h0ZM513.7,295.2h0v1.3h1.6v-14h-1.6v6.4h0c-.3-.5-.8-.8-1.3-1.1s-1.1-.5-1.8-.5-1.3.2-1.8.3c-.5.2-1,.5-1.4,1-.5.5-.6,1-1,1.4-.2.6-.3,1.1-.3,1.8s.2,1.3.3,1.8c.2.5.5,1.1,1,1.4.5.5.8.8,1.4,1s1.1.3,1.8.3,1.1-.2,1.8-.3c.5,0,1-.3,1.3-.8h0ZM510.8,295c-.5,0-.8-.2-1.1-.2-.3-.2-.6-.3-1-.6-.3-.3-.5-.6-.6-1-.3-.8-.3-1.6,0-2.4.2-.3.3-.6.6-1s.5-.5,1-.6c.8-.3,1.6-.3,2.4,0,.3.2.6.3,1,.6.3.3.5.6.6,1,.3.8.3,1.6,0,2.4-.2.3-.3.6-.6,1s-.5.5-1,.6c-.5.2-.8.2-1.3.2h0ZM528.6,290.4c.5-.2,1-.5,1.3-.8s.5-.8.6-1.1c.2-.8.2-1.8,0-2.6-.2-.5-.3-.8-.6-1.1s-.8-.6-1.3-.8c-.6-.2-1.4-.3-2.1-.3h-4.7v13h1.8v-5.8h2.9c.8-.2,1.4-.3,2.1-.5h0ZM523.8,289.1v-4.2h2.4c.3,0,.6,0,1,.2.3,0,.6.2,1,.3.3.2.5.3.6.6.3.6.3,1.4,0,2.1-.2.3-.3.5-.6.6-.3.2-.6.3-1,.3s-.6.2-1,.2l-2.4-.2h0ZM538,295h0c0,.5,0,.8.2,1.3h1.4v-5.9c0-.3-.2-.8-.2-1.1-.2-.3-.3-.6-.6-1-.3-.3-.8-.5-1.1-.6-.5-.2-1.1-.3-1.6-.2-.6,0-1.3.2-1.8.3s-1.1.5-1.6,1l1,1.1c.2-.2.3-.2.5-.3.2-.2.3-.2.5-.3.2-.2.5-.2.6-.2.3,0,.5-.2.8-.2s.6,0,1,.2c.2.2.5.2.6.5.2.2.3.3.3.6.2.2.2.5.2.6v.3h-1.3c-.6,0-1.3,0-1.9.2-.5.2-1.1.3-1.6.5s-.8.5-1.1,1c-.5.8-.5,1.8-.2,2.6.2.3.3.6.6.8s.6.5,1,.5c.3.2.8.2,1.1.2.6,0,1.1-.2,1.8-.3.6-.5,1.1-1,1.4-1.4h0ZM536.5,295c-.3.2-.8.2-1.1.2-.5,0-1-.2-1.4-.3-.3-.2-.5-.6-.5-1.1s.2-.6.3-.8c.2-.2.5-.5.8-.5.3-.2.8-.2,1.1-.2h1.9v.5c0,.3,0,.6-.2,1-.2.3-.2.6-.5.8.2.2-.2.3-.5.5h0ZM546.3,287.5c.2,0,.5,0,.8.2l-.2,1.8c-.2,0-.3,0-.5-.2h-.5c-.6,0-1.4.2-1.9.6-.5.6-.8,1.4-.6,2.1v4.3h-1.6v-8.7h1.6v1.3h0c.2-.2.3-.5.5-.6.2-.2.5-.3.6-.5.2-.2.5-.2.8-.3.3,0,.6,0,1,0h0ZM549.2,296c.3.2.6.5,1,.5.3.2.8.2,1.1.2.6,0,1.1-.2,1.8-.3.5-.3,1-.6,1.3-1.1h0v1.3h1.4v-6.1c0-.3-.2-.8-.2-1.1-.2-.3-.3-.6-.6-1-.3-.3-.8-.5-1.1-.6-.5-.2-1.1-.3-1.6-.2-.6,0-1.3.2-1.8.3-.6.2-1.1.5-1.6,1l1,1.1c.2-.2.3-.2.5-.3.2-.2.3-.2.5-.3.2-.2.5-.2.6-.2.3,0,.5-.2.8-.2s.6,0,1,.2c.2.2.5.2.6.5.2.2.3.3.3.6.2.2.2.5.2.6v.3h-1.3c-.6,0-1.3,0-1.9.2-.5.2-1.1.3-1.6.5s-.8.5-1.1,1c-.5.8-.5,1.8-.2,2.6.3.2.6.5,1,.6h0ZM550.2,292.9c.2-.2.5-.5.8-.5.3-.2.8-.2,1.1-.2h1.9v.5c0,.3,0,.6-.2,1-.2.3-.2.6-.5.8-.2.3-.5.5-.8.6-.3.2-.8.2-1.1.2-.5,0-1-.2-1.4-.3-.3-.2-.5-.6-.5-1.1.3-.3.5-.6.6-1h0ZM560,296.5h-1.6v-14h1.6v14ZM568.7,287.6h1.8l-4.2,10.6c-.2.3-.3.6-.5,1.1-.2.3-.3.5-.5.8-.2.2-.5.5-.8.5-.3.2-.8.2-1.1.2h-.8c-.2,0-.5-.2-.8-.2l.2-1.4c.3.2.6.2,1,.2s.5,0,.6-.2c.2,0,.3-.2.5-.3.2-.2.2-.3.3-.5.2-.2.2-.3.3-.6l.5-1.4-3.5-8.8h1.9l2.6,6.8h0l2.6-6.6ZM585.1,289.9c.2.5.2,1,.2,1.4v5.1h-1.6v-5.8c0-.3-.2-.5-.3-.8-.2-.2-.3-.5-.6-.5-1-.5-2.1-.2-2.7.5-.3.5-.5,1.3-.5,1.9v4.8h-1.6v-5.6c0-.3-.2-.6-.3-1-.2-.2-.3-.5-.5-.6-.3-.2-.6-.2-1-.2s-.6,0-.8.2c-.3.2-.5.3-.8.5-.2.3-.5.5-.5,1-.2.5-.2.8-.2,1.3v4.5h-1.8v-8.7h1.6v1.4h0c0-.2.2-.3.3-.5.2-.2.3-.3.6-.5s.5-.3.8-.5.8-.2,1.1-.2c.6,0,1.1.2,1.6.5s.8.8,1.1,1.3c.3-.5.6-1,1.1-1.3s1-.5,1.6-.5,1.1.2,1.6.3c.5.2.8.5,1,.8.3.2.5.5.5,1h0ZM595.8,288.7c-.5-.5-.8-.8-1.4-1s-1.1-.3-1.8-.3-1.1.2-1.8.3c-.5.2-1,.6-1.3,1.1h0v-1.3h-1.6v14h1.6v-6.4h0c.3.5.8.8,1.3,1.1s1.1.5,1.8.5,1.3-.2,1.8-.3c.5-.2,1-.5,1.4-1,.5-.5.6-1,1-1.4.5-1.1.5-2.4,0-3.5-.3-.8-.6-1.3-1-1.8h0ZM595,293.2c-.2.3-.3.6-.6,1s-.5.5-1,.6c-.8.3-1.6.3-2.4,0-.3-.2-.6-.3-1-.6-.3-.3-.5-.6-.6-1-.3-.8-.3-1.6,0-2.4.2-.3.3-.6.6-1s.5-.5,1-.6c.8-.3,1.6-.3,2.4,0,.3.2.6.3,1,.6.3.3.5.6.6,1,.3.8.3,1.6,0,2.4ZM599.1,287.6h1.6v8.7h-1.6v-8.7ZM600.8,283.6c.5.5.5,1.3,0,1.8s-1.3.5-1.8,0-.5-1.3,0-1.8.5-.3.8-.3c.5,0,.8.2,1,.3h0ZM609.7,294.1l1.1,1.1c-.5.5-1,.8-1.4,1.1-.6.2-1.1.3-1.8.3s-1.3-.2-1.9-.3c-.5-.2-1.1-.5-1.4-1-.5-.5-.8-1-1-1.4-.2-.6-.3-1.3-.3-1.9s.2-1.3.3-1.9c.5-1.1,1.3-1.9,2.4-2.4.6-.2,1.3-.3,1.9-.3s1.3.2,1.8.3c.6.2,1.1.6,1.4,1.1l-1.3,1.1c-.3-.3-.6-.5-1-.8-.3-.2-.8-.3-1.1-.2-.5,0-.8.2-1.1.2-.3.2-.6.5-.8.6-.2.3-.5.6-.5,1-.2.3-.2.8-.2,1.1,0,.5,0,.8.2,1.1s.3.6.6,1c.2.3.5.5.8.6.3.2.8.2,1.1.2.5,0,.8-.2,1.1-.2.3.2.6-.2,1-.5h0ZM469,309.5h4.7v6.4c-.3.2-.8.3-1.1.5-.5.2-.8.3-1.3.3-.5.2-.8.2-1.3.2s-.8.2-1.3.2c-1,0-2.1-.2-3.1-.5-1.6-.6-2.9-2.1-3.5-3.7s-.5-1.8-.5-2.7.2-1.8.5-2.7c.3-.8.8-1.6,1.4-2.3s1.3-1.1,2.1-1.4,1.8-.5,2.7-.5,2.1.2,3.1.5c.8.3,1.4.6,1.9,1.3l-1.3,1.3c-.5-.5-1.1-.8-1.8-1.1-.6-.2-1.3-.3-1.9-.3-1.4,0-2.7.5-3.5,1.6-.5.5-.8,1.1-1,1.6-.2.6-.3,1.3-.3,2.1s.2,1.4.3,2.1c.2.6.6,1.1,1.1,1.6.5.5,1,.8,1.6,1.1s1.3.5,2.1.5,1.1,0,1.8-.2c.5-.2,1-.3,1.4-.5v-3.7h-2.9v-1.6h0ZM483.5,315.3v-4.5c0-.3-.2-.8-.2-1.1-.2-.3-.3-.6-.6-1-.3-.3-.8-.5-1.1-.6-.5-.2-1.1-.3-1.6-.2-.6,0-1.3.2-1.8.3-.6.2-1.1.5-1.6,1l1,1.1c.2-.2.3-.2.5-.3.2-.2.3-.2.5-.3.2-.2.5-.2.6-.2.3,0,.5-.2.8-.2s.6,0,1,.2c.2.2.5.2.6.5.2.2.3.3.3.6.2.2.2.5.2.6v.3h-1.3c-.6,0-1.3,0-1.9.2-.5.2-1.1.3-1.6.5s-.8.5-1.1,1c-.5.8-.5,1.8-.2,2.6.2.3.3.6.6.8.3.2.6.5,1,.5.3.2.8.2,1.1.2.6,0,1.1-.2,1.8-.3.5-.3,1-.6,1.3-1.1h0v1.3h1.4v-.8c.3-.3.3-.6.3-1h0ZM481.9,313.2c0,.3,0,.6-.2,1-.2.3-.2.6-.5.8-.2.3-.5.5-.8.6-.3.2-.8.2-1.1.2-.5,0-1-.2-1.4-.3-.3-.2-.5-.6-.5-1.1s.2-.6.3-.8c.2-.2.5-.5.8-.5.3-.2.8-.2,1.1-.2h1.9v.3h.3ZM499.1,310.3c.2.5.2,1,.2,1.4v5.1h-1.6v-5.8c0-.3-.2-.5-.3-.8-.2-.2-.3-.5-.6-.5-1-.5-2.1-.2-2.7.5-.3.5-.5,1.3-.5,1.9v4.8h-1.6v-5.6c0-.3-.2-.6-.3-1-.2-.2-.3-.5-.5-.6-.3-.2-.6-.2-1-.2s-.6,0-.8.2c-.3.2-.5.3-.8.5-.2.3-.5.5-.5,1-.2.5-.2.8-.2,1.3v4.5h-1.6v-9h1.6v1.4h0c0-.2.2-.3.3-.5.2-.2.3-.3.6-.5s.5-.3.8-.5.8-.2,1.1-.2c.6,0,1.1.2,1.6.5s.8.8,1.1,1.3c.3-.5.6-1,1.1-1.3s1-.5,1.6-.5,1.1.2,1.6.3c.5.2.8.5,1,.8,0,.5.3.8.3,1.3h0ZM509,309.3c-.3-.5-.8-.8-1.3-1.1-.6-.3-1.3-.5-1.9-.5s-1.3.2-1.8.3c-.5.2-1,.5-1.4,1-.5.5-.8,1-1,1.4-.2.6-.3,1.1-.3,1.8s.2,1.3.3,1.8c.2.5.5,1.1,1,1.4s.8.8,1.4,1,1.3.3,1.9.3c1.4.2,3.1-.6,3.9-1.8l-1.3-1c-.3.3-.6.6-1.1,1-.5.2-.8.3-1.3.3s-.8,0-1.1-.2-.6-.3-1-.5c-.3-.2-.5-.5-.6-.8-.2-.3-.3-.6-.2-1.1h7.1v-.6c0-.5-.2-1.1-.2-1.8-.5,0-.8-.5-1.1-1h0ZM502.9,311.7c0-.3.2-.6.2-1,.2-.3.3-.6.5-.8.2-.3.5-.5.8-.6.3-.2.8-.2,1.1-.2s.8,0,1.1.2.5.3.8.5c.2.2.3.5.5.8s.2.6.2,1l-5.1.2ZM518,313.3c.2.3.2.6.2,1.1s-.2.8-.3,1.3c-.2.3-.5.6-.8.8s-.8.5-1.1.5c-.5.2-.8.2-1.3.2s-1.3-.2-1.9-.3c-.6-.3-1.1-.6-1.4-1.3l1.3-1.1c.3.3.6.5,1,.8.3.2.8.3,1.3.3h.6c.2,0,.5-.2.6-.2.2-.2.3-.2.5-.3s.2-.3.2-.5-.2-.5-.2-.6c-.2-.2-.3-.3-.5-.3-.2-.2-.5-.2-.6-.2s-.5-.2-.6-.2c-.3-.2-.6-.2-1-.3-.3-.2-.6-.3-.8-.5l-.6-.6c-.2-.3-.2-.6-.2-1.1s.2-.8.3-1.1c.2-.3.5-.6.8-.8s.6-.5,1.1-.5c.5-.2.8-.2,1.1-.2.6,0,1.1.2,1.8.3.5.2,1,.6,1.3,1.1l-1.3,1c-.2-.2-.5-.5-.8-.6-.3-.2-.6-.3-1.1-.2-.3,0-.8.2-1,.2-.3.2-.5.5-.5.8s.2.5.2.6c.2.2.3.3.6.3.2.2.5.2.8.2s.5.2.6.2c.3.2.6.2,1,.3.3.2.5.3.8.5-.3-.2-.2.2,0,.5h0ZM533,303.9h1.8v13h-1.8v-5.9h-6.8v5.9h-1.8v-13h1.8v5.5h6.8v-5.5ZM545.2,309.3c-1.8-1.8-4.8-1.8-6.6,0s-.8,1-1,1.4c-.2.5-.3,1.1-.3,1.8,0,1.3.5,2.4,1.3,3.2s1,.8,1.4,1c1.1.5,2.4.5,3.7,0,.5-.2,1.1-.5,1.4-1,.8-.8,1.4-2.1,1.3-3.2,0-.6-.2-1.3-.3-1.8-.3-.6-.6-1.1-1-1.4h0ZM544.6,313.7c-.2.3-.3.6-.6,1s-.5.5-1,.6c-.8.3-1.6.3-2.4,0-.3-.2-.6-.3-1-.6-.3-.3-.5-.6-.6-1-.3-.8-.3-1.6,0-2.4.2-.3.3-.6.6-1,.3-.3.5-.5,1-.6.8-.3,1.6-.3,2.4,0,.3.2.6.3,1,.6.3.3.5.6.6,1,.2.8.2,1.6,0,2.4ZM554.4,313.3c.2.3.2.6.2,1.1s-.2.8-.3,1.3c-.2.3-.5.6-.8.8s-.8.5-1.1.5c-.5.2-.8.2-1.3.2s-1.3-.2-1.9-.3c-.6-.3-1.1-.6-1.4-1.3l1.3-1.1c.3.3.6.5,1,.8.3.2.8.3,1.3.3h.6c.2,0,.5-.2.6-.2.2-.2.3-.2.5-.3.2-.2.2-.3.2-.5s-.2-.5-.2-.6c-.2-.2-.3-.3-.5-.3-.2-.2-.5-.2-.6-.2s-.5-.2-.6-.2c-.3-.2-.6-.2-1-.3-.3-.2-.6-.3-.8-.5l-.6-.6c-.2-.3-.2-.6-.2-1.1s.2-.8.3-1.1c.2-.3.5-.6.8-.8s.6-.5,1.1-.5c.5-.2.8-.2,1.1-.2.6,0,1.1.2,1.8.3.5.2,1,.6,1.3,1.1l-1.3,1c-.2-.2-.5-.5-.8-.6-.3-.2-.6-.3-1.1-.2-.3,0-.8.2-1,.2-.3.2-.5.5-.5.8s.2.5.2.6c.2.2.3.3.6.3s.5.2.8.2.5.2.6.2c.3.2.6.2,1,.3.3.2.5.3.8.5-.2-.2,0,.2,0,.5h0ZM561.1,315.4c.2,0,.5-.2.6-.2v1.4c-.2.2-.5.2-.8.2h-.8c-.5,0-1,0-1.4-.3-.3-.2-.6-.5-.8-.6-.2-.3-.3-.6-.3-1v-5.6h-1.9v-1.3h1.9v-2.4h1.6v2.4h2.4v1.4h-2.4v4.8c0,.2,0,.5.2.6s.2.3.3.5c.2.2.5.2.8.2s.5,0,.6-.2h0Z"/>
      <path id="Brisbane_2032" data-name="Brisbane 2032" class="cls-7" d="M429.5,258.4c-.5-.5-1-.8-1.6-1.1s-1.3-.5-2.1-.6h0c1.1-.3,2.1-1,2.7-1.8s1.1-1.9,1.1-3.1-.2-2.1-.8-2.9c-.5-.8-1.1-1.3-1.9-1.8-.8-.5-1.8-.6-2.6-.8-1-.2-1.9-.2-2.9-.2h-8.4v22.2h9c1,0,1.9-.2,3.1-.3,1-.2,1.8-.5,2.7-1.1.8-.5,1.4-1.1,1.9-1.9.5-.8.8-1.9.8-2.9s-.2-1.4-.3-2.1c-.2-.6-.5-1.3-.8-1.6ZM418.2,250h3.4c.5,0,.8,0,1.1.2.3,0,.8.2,1.1.3s.6.5.8.6c.2.3.3.8.3,1.1,0,.5-.2.8-.3,1.1s-.5.5-.6.8c-.3.2-.6.3-1,.5-.3.2-.8.2-1.1.2h-3.5l-.2-4.8h0ZM425.6,262.5c-.2.3-.5.6-.8.8s-.6.3-1.1.5c-.3.2-.8.2-1.1.2h-4.3v-5h3.7c.5,0,.8,0,1.3.2.5,0,.8.2,1.3.3.3.2.8.5,1,.8.3.3.5.8.5,1.3,0,.3-.2.6-.3,1ZM443,252.6c.3,0,.5,0,.8.2v4.3c-.3-.2-.6-.2-1-.2s-.6-.2-1-.2c-.8,0-1.4.2-2.1.3-.5.2-1,.6-1.1,1.1-.3.5-.5,1.1-.5,1.6-.2.6-.2,1.4-.2,2.1v6.4h-4.7v-15.3h4.7v2.4h0c.5-.8,1-1.6,1.8-2.1s1.8-.8,2.6-.6c0-.3.3-.3.6-.2h0ZM449.5,246.1c1.1,1.1,1.1,2.7,0,3.9-1.1,1.1-2.7,1.1-3.9,0s-1.1-2.7,0-3.9c.5-.5,1.1-.8,1.9-.8s1.4.3,1.9.8h0ZM445.4,252.9h4.7v15.3h-4.7v-15.3ZM464.5,261.3c.5.6.6,1.4.6,2.3s-.2,1.8-.6,2.4-1,1.1-1.6,1.6-1.4.6-2.3.8-1.6.2-2.4.2-2.3-.2-3.2-.5c-1.1-.3-2.1-.8-2.7-1.6l2.9-3.2c.5.5,1,1,1.4,1.3.6.3,1.3.5,1.9.5s1-.2,1.4-.2c.5-.2.6-.5.6-.8s-.2-.8-.6-1-1-.5-1.4-.5c-.6-.2-1.3-.3-1.9-.5-.6-.2-1.3-.3-1.9-.6-.6-.3-1.1-.8-1.4-1.3-.5-.6-.6-1.4-.6-2.3s.2-1.6.5-2.4c.3-.6.8-1.1,1.4-1.6s1.3-.8,2.1-1,1.6-.3,2.4-.3,2.1.2,3.1.5c1,.3,1.9.8,2.6,1.6l-2.9,2.9c-.6-.8-1.6-1.3-2.7-1.3s-.8.2-1.1.3-.6.5-.5,1c0,.3.2.6.6.8s1,.3,1.4.5c.6.2,1.3.3,1.9.5.6.2,1.3.5,1.9.8.3,0,.8.5,1.1,1.1h0ZM482,255c-.6-.8-1.3-1.4-2.3-1.8-1-.5-1.9-.6-2.9-.6s-1.9.2-2.7.5c-.8.3-1.6.8-2.1,1.6h0v-10.1h-4.7v23.6h4.3v-2.1h0c.2.3.5.6.8.8.3.3.6.5,1.1.8.5.2.8.5,1.3.5.5.2,1,.2,1.6.2,1.1,0,2.1-.2,3.1-.6,1-.3,1.8-1,2.4-1.6.6-.8,1.1-1.6,1.4-2.4.3-1,.5-2.1.5-3.2s-.2-2.1-.5-3.1c-.3-.8-.8-1.6-1.4-2.4h0ZM478.2,263.3c-1.6,1.4-4,1.4-5.5,0-1.3-1.6-1.3-3.9,0-5.6,1.6-1.4,4-1.4,5.5,0,1.3,1.6,1.3,4,0,5.6ZM498.4,254.5c-.5-.6-1.3-1.3-2.1-1.4-1.1-.3-2.3-.5-3.4-.5s-2.4.2-3.7.6c-1.1.5-2.3,1-3.1,1.8l2.6,2.6c.5-.5,1.1-1,1.8-1.3s1.4-.5,2.1-.5,1.4.2,2.1.8c.6.5,1,1.3,1,2.1h-2.1c-.8,0-1.4.2-2.3.2-.8.2-1.4.3-2.3.5-.6.2-1.3.5-1.9,1s-1,1-1.3,1.4c-.3.6-.5,1.4-.5,2.3s.2,1.4.5,2.1c.3.6.6,1.1,1.1,1.4.5.5,1.1.8,1.8,1,.6.2,1.4.3,2.1.3,1,0,1.9-.2,2.7-.5s1.6-1,2.1-1.8h0v1.9h4.3v-7.7c0-1.1-.2-2.3-.3-3.4-.3-1.3-.6-2.1-1.3-2.9h0ZM495.5,262.5c0,.5-.2.8-.3,1.3-.2.3-.5.6-.8.8-.3.2-.8.5-1.1.5s-.8.2-1.3.2-1.1-.2-1.4-.5c-.5-.2-.8-.8-.8-1.3s.2-1,.5-1.3c.3-.3.8-.5,1.3-.6s1-.2,1.6-.3h2.4v1.3h0ZM517.1,256.9c.2,1,.2,1.9.2,2.9v8.4h-4.7v-8.8c0-.5-.2-.8-.3-1.3-.3-.8-1.1-1.4-2.1-1.3-.5,0-1,.2-1.4.3-.3.2-.6.5-.8.8s-.3.8-.5,1.3c0,.5-.2,1-.2,1.4v7.6h-4.7v-15.3h4.5v2.1h0c.2-.3.3-.6.6-.8.3-.3.6-.5,1-.8.5-.2.8-.5,1.3-.5.5-.2,1.1-.2,1.6-.2,1,0,1.9.2,2.9.5.6.3,1.3.8,1.8,1.4.5.6.6,1.4.8,2.3h0ZM533.1,254.7c-.6-.6-1.4-1.3-2.3-1.6-1-.3-1.9-.6-3.1-.5-1.1,0-2.3.2-3.2.5-1,.3-1.9,1-2.7,1.6s-1.4,1.6-1.8,2.6c-.8,2.1-.8,4.5,0,6.6.5,1,1.1,1.8,1.8,2.6.8.8,1.8,1.3,2.7,1.6,1.1.3,2.3.6,3.2.5,1.3,0,2.4-.3,3.5-.8s2.1-1.3,2.9-2.3l-3.2-2.4c-.3.5-.8,1-1.4,1.3-.6.3-1.3.5-1.9.5s-1.8-.3-2.4-.8-1.1-1.3-1.3-2.1h10.9v-1.4c0-1.1-.2-2.3-.5-3.2-.2-1-.6-1.8-1.3-2.6h0ZM524.1,258.7c0-.3.2-.8.3-1.1.2-.3.3-.6.6-1s.6-.5,1-.6c.5-.2,1-.3,1.4-.2.8,0,1.6.3,2.1.8s.8,1.3.8,2.1h-6.3ZM548.1,264h9.8v4.2h-15.4v-5l8.7-7.7c.5-.5,1-.8,1.3-1.3.5-.5.6-1.1.6-1.8s-.3-1.3-.8-1.8c-.5-.5-1.3-.6-1.9-.6s-1.4.3-2.1.8c-.5.5-.8,1.3-.8,2.1l-4.7-.3c0-1.1.3-2.1.8-3.1.5-.8,1-1.6,1.6-2.1.8-.6,1.6-1,2.4-1.3,1-.3,2.1-.5,3.1-.5s1.9.2,2.9.5c.8.3,1.6.6,2.3,1.3.6.5,1.1,1.3,1.4,2.1.3,1,.5,1.9.5,2.9s0,1.3-.2,1.9c-.2.5-.3,1.1-.6,1.6s-.5,1-1,1.3c-.3.5-.8.8-1.1,1.1l-6.8,5.6ZM574.6,249.4c-.6-1.1-1.4-2.1-2.6-2.7-2.6-1.4-5.6-1.4-8.2,0-1.1.6-1.9,1.6-2.6,2.7-.6,1.1-1.1,2.4-1.3,3.7-.5,2.7-.5,5.3,0,8,.2,1.3.6,2.6,1.3,3.7.6,1.1,1.4,2.1,2.6,2.7,2.6,1.4,5.6,1.4,8.2,0,1.1-.6,1.9-1.6,2.6-2.7.6-1.1,1.1-2.4,1.3-3.7.5-2.7.5-5.3,0-8-.2-1.3-.6-2.6-1.3-3.7h0ZM571.6,259.2c0,.8-.2,1.6-.5,2.4-.2.8-.5,1.4-1.1,1.9-1.1,1.1-2.9,1.1-4,0s-.8-1.1-1.1-1.9c-.2-.8-.3-1.6-.5-2.4,0-.8-.2-1.4-.2-2.1s0-1.3.2-2.1c0-.8.2-1.6.5-2.4.2-.6.5-1.4,1.1-1.9,1.1-1.1,2.9-1.1,4,0s.8,1.1,1.1,1.9c.2.8.3,1.6.5,2.4,0,.8.2,1.4.2,2.1s-.2,1.3-.2,2.1h0ZM593.1,260c.2.6.3,1.3.3,1.8,0,1-.2,2.1-.6,2.9-.5.8-1,1.4-1.8,2.1-.8.6-1.6,1-2.6,1.3s-2.1.5-3.1.5c-1.8,0-3.5-.5-5.1-1.4-1.4-1-2.6-2.6-2.9-4.3l5-1.1c.2.8.5,1.4,1,1.9.6.5,1.4.8,2.3.6.8.2,1.6-.2,2.3-.8.5-.5.8-1.3.8-2.1s-.2-1-.5-1.4c-.3-.3-.6-.6-1-.8-.5-.2-1-.3-1.4-.3h-2.7v-4h1.6c.5,0,.8,0,1.3-.2.5,0,.8-.2,1.1-.3s.6-.5.8-.8.3-.8.3-1.3-.3-1.3-.8-1.6c-.5-.5-1.3-.6-1.9-.6s-1.3.2-1.8.6c-.5.3-.8,1-1,1.4l-5.1-1.1c.2-.8.6-1.8,1.1-2.4s1.1-1.3,1.8-1.6c.8-.5,1.4-.8,2.3-1s1.8-.3,2.7-.3,1.9.2,2.9.3c.8.2,1.8.6,2.4,1.1.6.5,1.3,1.1,1.6,1.9.5.8.6,1.8.6,2.7s-.3,2.3-1,3.2c-.6,1-1.8,1.4-2.9,1.8v.2c.6.2,1.3.3,1.8.6.5.3,1,.6,1.3,1.1.5.3.8,1,1,1.4h0ZM610.9,264v4.2h-15.6v-5l8.7-7.7c.5-.5,1-.8,1.3-1.3.5-.5.6-1.1.6-1.8s-.3-1.3-.8-1.8c-.5-.5-1.3-.6-1.9-.6s-1.4.3-2.1.8c-.5.5-.8,1.3-.8,2.1l-4.7-.3c0-1.1.3-2.1.8-3.1.5-.8,1-1.6,1.6-2.1.8-.6,1.6-1,2.4-1.3,1-.3,2.1-.5,3.1-.5s1.9.2,2.9.5c.8.3,1.6.6,2.3,1.3.6.5,1.1,1.3,1.4,2.1.3,1,.5,1.9.5,2.9s0,1.3-.2,1.9c-.2.5-.3,1.1-.6,1.6s-.5,1-1,1.3c-.3.5-.8.8-1.1,1.1l-6.8,5.8,10-.2Z"/>
      <rect class="cls-4" x="413.2" y="395.7" width="197.7" height="1.3"/>
    </g>
    <g id="Agitos_symbol" data-name="Agitos symbol">
      <path class="cls-8" d="M508.2,436.6c-5.6-1.3-13.2.2-20.4,4.3-11.3,6.4-17.2,17.4-13.3,24.1,2.6,4.3,8.4,5.9,15.3,4.8-3.2-.8-5.6-2.4-7.1-4.8-3.9-6.8,2.1-17.5,13.3-24.1,3.7-2.1,7.9-3.7,12.2-4.3"/>
      <path class="cls-1" d="M508.2,463.3c1.8,5.5,6.8,11.4,14,15.6,11.3,6.4,23.6,6.3,27.5-.5,2.6-4.3,1-10.3-3.4-15.8,1,3.1.8,6.1-.6,8.5-3.9,6.8-16.2,7.1-27.5.5-3.7-2.3-7.1-5-10-8.4"/>
      <path class="cls-5" d="M500.7,450c-3.9,4.2-6.4,11.6-6.4,19.9,0,13,6.4,23.6,14.1,23.6s9.3-4.3,11.9-10.8c-2.3,2.4-4.8,3.7-7.7,3.7-7.9,0-14.1-10.6-14.1-23.6,0-4.3.6-8.7,2.3-12.9"/>
    </g>
  </g>
  <g id="Olympic_rings_COLOUR" data-name="Olympic rings COLOUR">
    <g class="cls-9">
      <g>
        <g class="cls-10">
          <path class="cls-8" d="M574.8,126.2c0,10.9-8.8,19.8-19.8,19.8s-18.8-8-19.8-18c1.1.2,2.4.3,3.4.8,1.1,8,8,14,16.4,14s16.6-7.4,16.6-16.6-7.4-16.6-16.6-16.6-15.9,6.9-16.4,15.6c-1.1-.3-2.1-.5-3.2-.5.8-10.1,9.3-18.3,19.8-18.3,10.8,0,19.6,8.8,19.6,19.8"/>
        </g>
        <g class="cls-13">
          <path class="cls-1" d="M533.5,128c8.4,0,15.1,6.1,16.4,14,1.1.3,2.3.6,3.4.8-.8-10.1-9.3-18-19.8-18s-1.1,0-1.8.2v1.6c0,.6,0,1.1-.2,1.8.8-.3,1.4-.3,1.9-.3M550,145.5c-.5,8.7-7.7,15.6-16.4,15.6s-16.6-7.4-16.6-16.6,4.8-13.5,11.4-15.8c.2-.8.2-1.6.2-2.4v-1c-8.5,2.3-14.8,10-14.8,19.1s8.8,19.8,19.8,19.8,19-8,19.8-18.3c-1.3-.2-2.4-.3-3.4-.5"/>
        </g>
        <g class="cls-12">
          <path class="cls-4" d="M512.1,106.4c-10.4,0-19,8-19.8,18.3,1.1.2,2.3.3,3.2.5.5-8.7,7.7-15.6,16.4-15.6s16.6,7.4,16.6,16.6-4.8,13.5-11.4,15.8c-.2.8-.2,1.6-.2,2.4v1c8.5-2.3,14.8-10,14.8-19.1.2-10.9-8.7-19.8-19.6-19.8M512.1,142.8c-8.4,0-15.1-6.1-16.4-14-1.1-.3-2.3-.6-3.4-.8.8,10.1,9.3,18,19.8,18s1.1,0,1.8-.2v-1.6c0-.6,0-1.1.2-1.8-.8.3-1.4.3-1.9.3"/>
        </g>
        <g class="cls-11">
          <path class="cls-6" d="M488.8,128c0-.5.2-1.1.2-1.8v-1.6c.5,0,1.1-.2,1.8-.2,10.3,0,18.8,8,19.8,18-1.1-.2-2.4-.3-3.4-.8-1.1-8-8-14-16.4-14-.6.3-1.3.3-1.9.3M510.3,146c-.8,10.1-9.3,18.3-19.8,18.3s-19.8-8.8-19.8-19.8,6.3-17,14.8-19.1v1c0,.8,0,1.6-.2,2.4-6.6,2.1-11.4,8.4-11.4,15.8s7.4,16.6,16.6,16.6,15.9-6.9,16.4-15.6c1.1.2,2.3.3,3.4.5"/>
        </g>
        <g class="cls-14">
          <path class="cls-5" d="M488.9,126.2c0-10.9-8.8-19.8-19.8-19.8s-19.8,8.8-19.8,19.8,8.8,19.8,19.8,19.8,1.1,0,1.8-.2v-1.6c0-.6,0-1.1.2-1.8-.5,0-1.1.2-1.8.2-9.2,0-16.6-7.4-16.6-16.6s7.4-16.6,16.6-16.6,16.6,7.4,16.6,16.6-4.8,13.5-11.4,15.8c-.2.8-.2,1.6-.2,2.4v1c8.4-1.9,14.6-9.6,14.6-19"/>
        </g>
      </g>
    </g>
  </g>
</svg>