<?xml version="1.0" encoding="UTF-8"?>
<svg id="Layer_3" data-name="Layer 3" xmlns="http://www.w3.org/2000/svg" version="1.1" viewBox="0 0 1024 600">
  <defs>
    <style>
      .cls-1 {
        fill: #000;
        stroke-width: 0px;
      }
    </style>
  </defs>
  <path class="cls-1" d="M139.9,337.4h-7.1v-13.7h-7.5v-4.7h59v4.7h-7.5v13.7h-7.1v97.9h-29.9v-97.9Z"/>
  <path class="cls-1" d="M212.6,337.4h-7.1v-13.7h-7.5v-4.7h58.6v4.7h-7.1v13.7h-7.1v97.9h-29.9v-97.9Z"/>
  <path class="cls-1" d="M285.3,337.4h-7.5v-13.7h-7.1v-4.7h58.6v4.7h-7.1v13.7h-7.1v97.9h-29.9v-97.9Z"/>
  <path class="cls-1" d="M326.6,163.1c-24,0-43.6,18.5-45.4,42-1.3-.1-2.6-.2-3.9-.2s-2.6,0-3.9.2c-1.8-23.5-21.5-42-45.4-42s-43.6,18.5-45.4,42c-1.3-.1-2.6-.2-3.9-.2s-2.6,0-3.9.2c-1.9-23.5-21.5-42-45.4-42s-45.6,20.4-45.6,45.6,20.4,45.6,45.6,45.6,2.6,0,3.9-.2c1.8,23.5,21.5,42,45.4,42s43.6-18.5,45.4-42c1.3.1,2.6.2,3.9.2s2.6,0,3.9-.2c1.9,23.5,21.5,42,45.4,42s43.6-18.5,45.4-42c1.3.1,2.6.2,3.9.2,25.2,0,45.6-20.4,45.6-45.6s-20.4-45.6-45.6-45.6M91,208.7c0-21,17-38,38-38s36.7,15.8,37.9,35.7c-18.4,4.8-32.2,20.7-33.9,40.1-1.3.1-2.6.2-4,.2-21,0-38-17-38-38M166.6,214.4c-2.1,14.3-12.3,26-25.7,30.4,2.1-14.3,12.3-26,25.7-30.4ZM178.4,288.5c-20.2,0-36.7-15.8-37.9-35.7,18.4-4.8,32.2-20.7,33.9-40.1,1.3-.1,2.6-.2,4-.2s2.7,0,4,.2c1.7,19.4,15.6,35.4,33.9,40.1-1.2,19.9-17.7,35.7-37.9,35.7M190.2,214.4c13.5,4.4,23.6,16.1,25.7,30.4-13.5-4.4-23.6-16.1-25.7-30.4ZM223.8,246.5c-1.7-19.4-15.6-35.4-33.9-40.1,1.2-19.9,17.7-35.7,37.9-35.7s36.7,15.8,37.9,35.7c-18.4,4.8-32.2,20.7-33.9,40.1-1.3.1-2.6.2-4,.2s-2.7,0-4-.2M265.4,214.4c-2.1,14.3-12.3,26-25.7,30.4,2.1-14.3,12.3-26,25.7-30.4ZM277.2,288.5c-20.2,0-36.7-15.8-37.9-35.7,18.4-4.8,32.2-20.7,33.9-40.1,1.3-.1,2.6-.2,4-.2s2.7,0,4,.2c1.7,19.4,15.6,35.4,33.9,40.1-1.2,19.9-17.7,35.7-37.9,35.7M289,214.4c13.5,4.4,23.6,16.1,25.7,30.4-13.5-4.4-23.6-16.1-25.7-30.4ZM326.6,246.7c-1.3,0-2.7,0-4-.2-1.7-19.4-15.6-35.4-33.9-40.1,1.2-19.9,17.7-35.7,37.9-35.7s38,17,38,38-17,38-38,38"/>
  <path class="cls-1" d="M417.6,259v-62.5c0-21.9,11.1-33.4,32.3-33.4s32.3,11.5,32.3,33.4v62.5c0,21.9-11.1,33.4-32.3,33.4s-32.3-11.5-32.3-33.4ZM460.7,257.6v-60.1c0-10.8-3.1-15.1-10.8-15.1s-10.8,4.3-10.8,15.1v60.1c0,10.6,3.2,15.1,10.8,15.1s10.8-4.5,10.8-15.1Z"/>
  <path class="cls-1" d="M516.1,164.9v106.3h30.5v19.4h-52.1v-125.7h21.5Z"/>
  <path class="cls-1" d="M536.8,164.9h22.4l12.2,57.4,12.2-57.4h22.1l-23.3,82.2v43.4h-22.3v-43.4l-23.3-82.2h0Z"/>
  <path class="cls-1" d="M616.9,164.9h104.1v125.7h-21.4v-107h-20.1v107h-21.4v-107h-19.9v107h-21.4v-125.7h0Z"/>
  <path class="cls-1" d="M799.8,192.2v27.3c0,18-11,27.3-32,27.3h-10.6v43.8h-21.5v-125.7h32.1c21,0,32,9.3,32,27.3h0ZM778.2,214.8v-18.3c0-8.6-4-12.9-12-12.9h-9v44.2h9c8.1,0,12-4.3,12-12.9h0Z"/>
  <path class="cls-1" d="M833.9,164.9v125.7h-21.5v-125.7h21.5Z"/>
  <path class="cls-1" d="M848.3,259v-62.5c0-21.9,10.9-33.4,32.1-33.4s31.8,11.5,31.8,33.4v16.2h-21.5v-15.3c0-10.8-3.1-15.1-10.4-15.1s-10.4,4.3-10.4,15.1v60.1c0,10.8,3.1,15.1,10.4,15.1s10.4-4.3,10.4-15.1v-17.1h21.5v18.5c0,21.9-10.9,33.4-31.8,33.4s-32.1-11.5-32.1-33.4Z"/>
  <path class="cls-1" d="M419.4,309.4h104.1v125.7h-21.4v-107h-20.1v107h-21.4v-107h-19.9v107h-21.4v-125.7h0Z"/>
  <path class="cls-1" d="M538.4,403.5v-94.1h21.5v92.6c0,10.8,3.1,15.1,10.8,15.1s10.8-4.3,10.8-15.1v-92.6h21.5v94.1c0,21.9-11.1,33.4-32.3,33.4s-32.3-11.5-32.3-33.4Z"/>
  <path class="cls-1" d="M614.9,407.6v-16.7h21v14.4c0,8.4,3.8,12.6,11.1,12.6s10.8-4,10.8-12v-2.3c0-8.3-4.3-15.8-12-21.2l-11.8-8.3c-10.8-7.5-18-18.8-18-32v-5.6c0-18.5,11.1-28.9,31.1-28.9s31.1,10.8,31.1,28.9v13.6h-20.5v-12c0-8.3-3.4-12.2-10.2-12.2s-10.1,4-10.1,11.8v2.3c0,6.5,3.8,12.7,10.6,17.4l11.7,8.1c12.6,8.8,19.6,21,19.6,36.4v5.6c0,18.8-11.3,29.3-32.1,29.3s-32.1-10.9-32.1-29.3h0Z"/>
  <path class="cls-1" d="M743.8,309.4v18.7h-30.9v33h28.2v19h-28.2v35.5h31.8v19.4h-53.3v-125.7h52.4Z"/>
  <path class="cls-1" d="M757.2,403.5v-94.1h21.5v92.6c0,10.8,3.1,15.1,10.8,15.1s10.8-4.3,10.8-15.1v-92.6h21.5v94.1c0,21.9-11.1,33.4-32.3,33.4s-32.3-11.5-32.3-33.4Z"/>
  <path class="cls-1" d="M836.4,309.4h104.1v125.7h-21.4v-107h-20.1v107h-21.4v-107h-19.9v107h-21.4v-125.7h0Z"/>
</svg>