<?xml version="1.0" encoding="UTF-8"?>
<svg id="Layer_2" data-name="Layer 2" xmlns="http://www.w3.org/2000/svg" version="1.1" viewBox="0 0 1024 600">
  <defs>
    <style>
      .cls-1 {
        fill: #ee2b2f;
      }

      .cls-1, .cls-2, .cls-3, .cls-4, .cls-5 {
        stroke-width: 0px;
      }

      .cls-2 {
        fill: #000;
      }

      .cls-3 {
        fill: #00a64f;
      }

      .cls-4 {
        fill: #2a76bc;
      }

      .cls-5 {
        fill: #fcb019;
      }
    </style>
  </defs>
  <path class="cls-2" d="M506.4,357.7h5.5v-18.6c0-4.9,3.2-9,8.6-9s6.8,3,6.8,8.8v18.8h5.5v-19.5c0-7.9-4.2-12.4-11.4-12.4s-7.9,2.5-9.5,5.2v-4.1h-5.5v30.8h0ZM484,354.4c-5.9,0-9.5-4.9-9.5-12.2s3.7-12.1,9.5-12.1,9.5,4.8,9.5,12.1-3.6,12.2-9.5,12.2M484,358.6c8.9,0,15.2-6.6,15.2-16.4s-6.3-16.4-15.2-16.4-15.2,6.8-15.2,16.4c0,9.9,6.3,16.4,15.2,16.4M456.1,357.7h5.5v-30.8h-5.5v30.8ZM455.7,321h6.3v-6.6h-6.3v6.6ZM446.2,358c1.3,0,2.4-.1,3.6-.4v-4.7c-.9.1-1.5.2-2.3.2-2.8,0-4.5-1.1-4.5-4.7v-17h6.5v-4.5h-6.5v-10.2h-5.4v10.2h-5.8v4.5h5.8v17.6c0,6.9,4.1,9.1,8.7,9.1M412.7,354.4c-3.1,0-5.6-1.9-5.6-5.1s2.8-4.9,6.5-5.6l4.4-.8c1.8-.3,3.1-.7,3.5-1.2v4.4c0,5-3.8,8.3-8.8,8.3M411.9,358.6c4.7,0,8.1-1.9,9.5-5.1v4.2h5.2v-20.2c0-7.1-4.4-11.6-12-11.6s-12.2,5.1-12.4,10.7h5.5c.1-3.8,2.4-6.3,7.1-6.3s6.5,2,6.5,5.4-.9,2.6-3.1,3l-6.8,1c-5.4.9-10.2,3.5-10.2,9.6,0,5.8,4.7,9.4,10.6,9.4M379.4,354.4c-5.6,0-9.5-4.9-9.5-12.1s3.9-12.1,9.5-12.1,9.5,4.7,9.5,12.1-3.9,12.2-9.5,12.2M378.4,358.6c4.6,0,8.4-2.4,10-5.2v4.3h5.5v-44.8h-5.5v18.1c-1.4-2.4-4.8-5.2-9.9-5.2-8.7,0-14.3,7.1-14.3,16.4s6.2,16.4,14.2,16.4M331,357.7h5.5v-18.6c0-4.9,3.2-9,8.6-9s6.8,3,6.8,8.8v18.8h5.5v-19.5c0-7.9-4.2-12.4-11.4-12.4s-7.9,2.5-9.5,5.2v-4.1h-5.5s0,30.8,0,30.8ZM307.1,358.6c4,0,7.9-1.9,9.4-5.2v4.3h5.2v-30.8h-5.4v17c0,6.6-2.8,10.5-7.8,10.5s-7.1-3.1-7.1-9v-18.5h-5.4v19.7c0,7.8,3.9,12.1,11.2,12.1M273.9,354.4c-5.9,0-9.5-4.9-9.5-12.2s3.7-12.1,9.5-12.1,9.5,4.8,9.5,12.1-3.6,12.2-9.5,12.2M273.9,358.6c8.9,0,15.2-6.6,15.2-16.4s-6.3-16.4-15.2-16.4-15.2,6.8-15.2,16.4c0,9.9,6.3,16.4,15.2,16.4M225.1,357.7h5.9v-20.7h22.2v-4.9h-22.2v-14.4h23.3v-4.9h-29.2v44.8h0ZM642.2,268.8c.4-5.2,3.8-9.2,9-9.2s8.4,3.7,8.4,9.2h-17.4ZM651.5,288.1c8.8,0,13-5.1,13.7-10.5h-5.5c-.8,4.7-4.4,6.2-8.1,6.2s-9.4-4-9.5-11.1h23.4v-1.1c0-9.9-5.1-16.4-14.3-16.4s-14.7,6.8-14.7,16.3c0,10.7,5.8,16.5,15,16.5M614.7,282.5c-5.6,0-9.4-4.5-9.4-11.4s3.8-11.5,9.4-11.5,9.4,4.8,9.4,11.5-3.8,11.4-9.4,11.4M614.4,301.7c9.9,0,14.8-5.2,14.8-16.1v-29.3h-5.5v4.1c-1.6-2.6-4.7-5.2-9.9-5.2-8.1,0-14.2,6.4-14.2,15.9s5.6,15.7,14,15.7,8.5-2,10.1-5.1v5.8c0,6.8-3.5,9.9-9.3,9.9s-8-2.9-8-7.3h-5.5c0,7.1,5.3,11.6,13.5,11.6M577.6,288.1c4,0,7.9-1.9,9.4-5.2v4.3h5.2v-30.8h-5.4v17c0,6.6-2.8,10.5-7.8,10.5s-7.1-3.1-7.1-9v-18.5h-5.4v19.7c0,7.8,3.9,12.1,11.2,12.1M549.2,287.1h5.5v-26.3h6.4v-4.5h-6.4v-5.3c0-3,1.6-4.6,4.5-4.6s1.4.1,2,.2v-4.7c-.6-.3-1.8-.6-3.1-.6-4.7,0-8.8,3.3-8.8,9.3v5.7h-5.8v4.5h5.8v26.3h0ZM516.7,268.8c.4-5.2,3.8-9.2,9-9.2s8.4,3.7,8.4,9.2h-17.4ZM526,288.1c8.8,0,13-5.1,13.7-10.5h-5.5c-.8,4.7-4.4,6.2-8.1,6.2s-9.4-4-9.5-11.1h23.4v-1.1c0-9.9-5.1-16.4-14.3-16.4s-14.7,6.8-14.7,16.3,5.8,16.5,15,16.5M477.8,262.6v-15.4h11.7c6.1,0,9.5,2.6,9.5,7.6s-3.4,7.8-9.5,7.8h-11.7ZM471.9,287.1h5.9v-19.6h10.9c6.6,0,9.4,2.2,9.4,9.3v10.3h5.8v-11.9c0-5.9-3.1-9.5-7.3-10.2,4-1.2,8.3-5.2,8.3-10.9s-5.4-11.8-14-11.8h-19.1v44.8h0ZM436.5,288.1c8.5,0,13.3-4.6,13.9-11.3h-5.4c-.6,4.4-3.6,7-8.2,7s-9.9-4.8-9.9-12.2,3.9-12.1,9.8-12.1,7.3,3,7.9,7h5.6c-.6-7-6.1-11.4-13.5-11.4s-15.5,6.6-15.5,16.4c0,11,6.9,16.5,15.3,16.5M408.5,287.1h5.5v-30.8h-5.5v30.8ZM408.1,250.5h6.3v-6.6h-6.3v6.6ZM386.1,283.8c-5.7,0-9.6-4.9-9.6-12.2s4-12.1,9.6-12.1,9.3,4.9,9.3,12.1-3.7,12.2-9.3,12.2M371.4,300.6h5.5v-17.8c1.7,3.2,5.6,5.2,10,5.2,8.5,0,14.3-6.6,14.3-16.4s-5.3-16.4-14.2-16.4-8.5,2.5-10.2,5.2v-4.2h-5.5s0,44.4,0,44.4ZM317.8,287.1h5.5v-18.1c0-5.1,3-9.4,7.8-9.4s6.3,3.4,6.3,9.3v18.3h5.5v-18.4c0-4.9,2.8-9.2,7.6-9.2s6.5,3.3,6.5,9.1v18.4h5.4v-19.5c0-8.5-4.6-12.4-10.7-12.4s-7.9,2.5-10.1,6.1c-1.7-4.1-5.2-6.1-9.3-6.1s-7.2,2.2-9,5.2v-4.1h-5.5v30.8h0ZM288.1,301.7c4.5,0,7.9-1.8,10-7.5l14.2-37.9h-5.8l-6.8,19.7c-.4,1.3-.9,2.5-1.3,3.7-.5-1.1-1-2.4-1.4-3.6l-7.8-19.8h-6.1l12.4,29.8-2.4,6.4c-1.3,3.5-3.2,4.2-5.6,4.2s-2-.2-2.6-.4v5.1c1,.3,2,.3,3.1.3M272.4,287.1h5.5v-44.8h-5.5s0,44.8,0,44.8ZM243.6,283.2c-9.1,0-15.1-7-15.1-18.5s6.2-18.5,15.1-18.5,15.1,7,15.1,18.5-5.9,18.5-15.1,18.5M243.6,288.1c12.1,0,21.2-9.3,21.2-23.4s-9.1-23.4-21.2-23.4-21.2,9.3-21.2,23.4,9.2,23.4,21.2,23.4"/>
  <path class="cls-3" d="M916.4,321.2c-1.1,18.2-16.2,32.6-34.6,32.6s-34.7-15.5-34.7-34.7,10-28.5,23.9-33c.4-2.4.5-4.9.3-7.3-17.9,4.6-31.2,21-31.2,40.4s18.6,41.7,41.7,41.7,39.8-16.9,41.5-38.3c-2.4-.3-4.7-.7-6.9-1.2M881.7,284.4c17.4,0,31.8,12.8,34.3,29.5,2.3.7,4.7,1.3,7.2,1.5-1.8-21.3-19.7-38-41.5-38s-2.4,0-3.6.2c0,1.1.1,2.2.1,3.3s0,2.4-.2,3.7c1.2,0,2.4-.2,3.6-.2"/>
  <path class="cls-5" d="M832.9,322.4c-1.7,21.5-19.6,38.3-41.5,38.3s-41.7-18.7-41.7-41.7,13.3-35.7,31.2-40.4c.2,2.4,0,4.9-.3,7.3-13.9,4.5-23.9,17.6-23.9,33s15.5,34.7,34.7,34.7,33.5-14.4,34.7-32.6c2.2.6,4.5,1,6.9,1.2M787.8,284.5c0-1.2.2-2.4.2-3.7s0-2.2-.1-3.3c1.2,0,2.4-.2,3.6-.2,21.8,0,39.7,16.7,41.5,38-2.5-.3-4.9-.8-7.2-1.5-2.5-16.7-16.9-29.5-34.3-29.5-1.2,0-2.4,0-3.6.2"/>
  <path class="cls-1" d="M968.5,280.9c0,23-18.7,41.7-41.7,41.7s-39.7-16.7-41.5-38c2.5.3,4.9.8,7.2,1.5,2.5,16.7,16.9,29.5,34.3,29.5s34.7-15.5,34.7-34.7-15.5-34.7-34.7-34.7-33.5,14.4-34.7,32.6c-2.2-.6-4.5-1-6.9-1.2,1.7-21.5,19.7-38.3,41.6-38.3s41.7,18.7,41.7,41.7"/>
  <path class="cls-2" d="M836.5,315.6c-17.4,0-31.8-12.8-34.3-29.5-2.3-.7-4.7-1.3-7.2-1.5,1.8,21.3,19.7,38,41.5,38s2.4,0,3.6-.2c0-1.1-.1-2.2-.1-3.3s0-2.4.2-3.7c-1.2,0-2.4.2-3.7.2M836.5,239.2c-21.9,0-39.8,16.9-41.5,38.3,2.4.2,4.6.6,6.9,1.2,1.1-18.2,16.2-32.6,34.7-32.6s34.7,15.5,34.7,34.7-10,28.5-23.9,33c-.3,1.7-.4,3.4-.4,5.2s0,1.4,0,2.2c17.9-4.6,31.2-21,31.2-40.4s-18.7-41.7-41.7-41.7"/>
  <path class="cls-4" d="M787.9,280.9c0-23-18.7-41.7-41.7-41.7s-41.7,18.7-41.7,41.7,18.7,41.7,41.7,41.7,2.4,0,3.6-.2c0-1.1-.1-2.2-.1-3.3s0-2.4.2-3.7c-1.2.1-2.4.2-3.6.2-19.2,0-34.7-15.5-34.7-34.7s15.5-34.7,34.7-34.7,34.7,15.5,34.7,34.7-10,28.5-23.9,33c-.3,1.7-.4,3.4-.4,5.2s0,1.4,0,2.2c17.9-4.6,31.2-21,31.2-40.4"/>
  <g>
    <path class="cls-2" d="M164.1,323.6c-.7-.3-1.7,0-2.2.9-.6,1.4-3,7.5-4.5,10.7-.7,1.4-2.3,4.8-3.4,6.4,3.3-2.5,6.1-6.1,8.4-10.6.9-1.8,1.8-3.7,2.6-5.6,0-.8-.3-1.5-.9-1.7M169.1,327.8c.9-1.7,1.7-3.5,2.5-5.3,0-.8-.4-1.5-1-1.7-.8-.3-1.8,0-2.3.7-.6,1-1.3,2.8-1.3,2.8-4.7,11.2-7.1,13.8-9.4,16.2.7-.4,1.5-.8,2.3-1.4,3.8-2.5,6.8-6.3,9.2-11.2M105.3,267.4c0,7.1,5.6,12.8,12.7,12.9,7.1,0,12.8-5.6,12.9-12.7,0-7.1-5.6-12.8-12.7-12.9,0,0,0,0,0,0-7.1,0-12.8,5.6-12.9,12.7"/>
    <path class="cls-2" d="M103.7,336.6c-.8,1.9-4.5,9.2-6.4,9.9-2.3.9-12-3.9-16.9-10.2-4-5-8.4-12.5-6.7-15.1,1-1.6,2.9-1.7,4.5-1.4,3.8.9,7.8,6.3,10.1,6.3,3.2,0,7.3-4.8,10.9-7.3,2-1.3,6.2-3.5,7.4,1.9,1.1,4.5-1.3,12.2-2.9,15.9M67.5,300.6c-1.7-6.8,2.7-13.5,9.5-14.9,6.6-1.3,13.1,3,14.4,9.6,1.4,6.8-3.2,13.4-10.1,14.5-6.2,1-12.4-3.1-13.9-9.2M177.8,317.5c-.8-.4-2.1-.5-3,1.6-1.2,3.4-2.6,6.1-4.1,9.3-2.5,5.2-5.8,9.1-9.7,11.8-4.3,3-7.5,3.9-9.5,2.7-1.5-.9-1.8-2.8-1.7-4.3.2-1.7,1.3-2.9,2.3-4.1.3-.3,3-3.3,1.4-5.2-.6-.7-2.5-1.3-4.8,1.2-2.5,2.7-4.8,6.6-5.5,7.4-5.9,7.5-12.3,13.7-29.4,13.4,3.2-5.2,8.6-17.3,5.4-32.6-1.7-8-4.1-18.3,4.5-20.3,4.4-1,14.2.3,22-1.4,4.5-1,9-2.9,13.4-5.7.5-.3,5.8-4.1,3.2-8-3.2-4.8-8.5-2-8.9-1.8-3.6,1.8-7.3,3.1-10.9,3.9-8.9,1.9-23.9,4.1-36.1-2.1-21-10.7-33-7.2-36.3-2.3,0,0,11.9-37.1,52.8-37.2,16.1,0,30.4,7.8,39.8,17.2,14.4,14.5,19.7,32.9,19.7,32.9-3.1-32.3-30.4-57.6-63.6-57.5-35.1.1-63.5,28.7-63.4,63.8.1,35,28.5,63.4,63.5,63.4,4.7,0,9.3-.5,13.7-1.5,0,0,10.9-2,21.7-9.3,11.2-7.5,19.8-18.3,24.4-31.3.7-1.8.1-3.6-1-4.1"/>
  </g>
</svg>