<?xml version="1.0" encoding="UTF-8"?>
<svg id="Layer_2" data-name="Layer 2" xmlns="http://www.w3.org/2000/svg" version="1.1" viewBox="0 0 1024 600">
  <defs>
    <style>
      .cls-1 {
        fill: #007dc5;
      }

      .cls-1, .cls-2, .cls-3, .cls-4, .cls-5 {
        stroke-width: 0px;
      }

      .cls-2 {
        fill: #231f20;
      }

      .cls-3 {
        fill: #fcaf17;
      }

      .cls-4 {
        fill: #ee312f;
      }

      .cls-5 {
        fill: #00a651;
      }
    </style>
  </defs>
  <g id="Lockup">
    <g id="Olympic_rings" data-name="Olympic rings">
      <path id="Red_ring" data-name="Red ring" class="cls-4" d="M508.9,269.5c0,36.8-29.8,66.6-66.6,66.6s-63.4-26.7-66.4-60.8c4,.4,7.8,1.2,11.5,2.4,4,26.7,27,47.2,54.9,47.2s55.5-24.9,55.5-55.5-24.9-55.5-55.5-55.5-53.6,23-55.4,52.1c-3.6-.9-7.2-1.6-11-1.9,2.7-34.3,31.4-61.3,66.4-61.3s66.6,29.8,66.6,66.6ZM375.6,269.5"/>
      <path id="Green_ring" data-name="Green ring" class="cls-5" d="M436.7,330.5,370.1,275c27.8,0,50.9,20.5,54.9,47.2,3.7,1.2,7.5,2,11.4,2.4-3-34.1-31.5-60.8-66.3-60.8s-3.9,0-5.8.2c.1,1.7.2,3.5.2,5.3s0,3.9-.3,5.8c1.9-.2,3.8-.3,5.8-.3ZM425.5,334c-1.8,29.1-25.9,52.1-55.4,52.1s-55.5-24.8-55.5-55.5,16-45.5,38.2-52.8c.4-2.7.6-5.5.6-8.3s0-2.3,0-3.4c-28.7,7.4-49.9,33.5-49.9,64.5s29.8,66.6,66.6,66.6,63.7-27,66.4-61.3c-3.8-.3-7.4-1-11-1.9Z"/>
      <path id="Black_ring" data-name="Black ring" class="cls-2" d="M231.3,269.5,297.9,202.9c-35,0-63.7,27-66.4,61.3,3.8.3,7.4,1,11,1.9,1.7-29.1,25.9-52.1,55.4-52.1s55.5,24.9,55.5,55.5-16,45.5-38.2,52.8c-.4,2.7-.6,5.5-.6,8.3s0,2.3,0,3.4c28.7-7.4,49.9-33.5,49.9-64.5s-29.8-66.6-66.6-66.6ZM297.9,325c-27.8,0-50.9-20.5-54.9-47.2-3.7-1.2-7.5-2-11.5-2.4,3,34.1,31.5,60.8,66.4,60.8s3.9,0,5.8-.3c-.1-1.7-.2-3.5-.2-5.3s.1-3.9.3-5.8c-1.9.2-3.9.3-5.8.3Z"/>
      <path id="Yellow_ring" data-name="Yellow ring" class="cls-3" d="M292.4,330.5,220,275.3c.2-1.9.3-3.9.3-5.8s0-3.6-.2-5.3c1.9-.2,3.8-.2,5.8-.2,34.8,0,63.4,26.7,66.4,60.8-4-.4-7.8-1.2-11.5-2.4-4-26.7-27.1-47.2-54.9-47.2s-3.9.1-5.8.3ZM292.2,335.8c-2.7,34.3-31.4,61.3-66.4,61.3s-66.6-29.8-66.6-66.6,21.2-57,49.9-64.5c0,1.1,0,2.3,0,3.4,0,2.8-.2,5.6-.6,8.3-22.2,7.3-38.2,28.1-38.2,52.8s24.8,55.5,55.5,55.5,53.6-23,55.4-52.1c3.5.9,7.2,1.6,11,1.9Z"/>
      <path id="Blue_ring" data-name="Blue ring" class="cls-1" d="M220.2,269.5c0-36.8-29.8-66.6-66.6-66.6s-66.6,29.8-66.6,66.6,29.8,66.6,66.6,66.6,3.9,0,5.8-.3c-.1-1.7-.2-3.5-.2-5.3s.1-3.9.3-5.8c-1.9.2-3.8.3-5.8.3-30.7,0-55.5-24.9-55.5-55.5s24.9-55.5,55.5-55.5,55.5,24.9,55.5,55.5-16,45.5-38.2,52.8c-.4,2.7-.6,5.5-.6,8.3s0,2.3,0,3.4c28.7-7.4,49.9-33.5,49.9-64.5Z"/>
    </g>
  </g>
  <g>
    <g>
      <path class="cls-2" d="M625.4,344.3c-4.9-5.4-11.4-8.8-18.5-9.9l24.1-24.1h-41.9l-8.3,8.3h29.5l-24.3,24.3h12.4s4.9,0,4.9,0c6,.3,11.5,2.9,15.6,7.3,4.1,4.5,6.2,10.2,5.9,16.3-.3,6-2.9,11.6-7.3,15.7-4.5,4.1-10.2,6.2-16.3,5.9-12.4-.6-22.1-11.1-21.6-23.5l-8.1,8.1c1.2,5.2,3.7,10,7.4,14.1,5.7,6.2,13.4,9.9,21.9,10.2.5,0,1,0,1.5,0,7.9,0,15.4-2.9,21.2-8.2,6.2-5.7,9.9-13.4,10.2-21.9.4-8.4-2.5-16.5-8.2-22.7M765.9,344.3c-5.7-6.2-13.4-9.9-21.9-10.2h-1.6l9.9-9.9h-12.4l-9.9,9.9h0l-5.8,5.8-3,3h0,0s22.6,0,22.6,0c6,.3,11.5,2.9,15.6,7.3,4.1,4.5,6.2,10.2,5.9,16.3-.3,6-2.9,11.6-7.3,15.7-4.5,4.1-10.2,6.2-16.3,5.9-12.1-.5-21.5-10.5-21.6-22.4l-7.9,7.9c1.3,4.9,3.7,9.4,7.2,13.2,5.7,6.2,13.4,9.9,21.9,10.2.5,0,1,0,1.5,0,7.9,0,15.4-2.9,21.2-8.2,6.2-5.7,9.9-13.4,10.2-21.9.4-8.4-2.5-16.5-8.2-22.7M695.2,358.6c-1.9-5.7-5.9-10.4-11.3-13.2-3.2-1.6-6.7-2.5-10.2-2.5s-4.7.4-7,1.1c-5.7,1.9-10.4,5.9-13.2,11.3-2.7,5.4-3.2,11.5-1.3,17.3,1.9,5.7,5.9,10.4,11.3,13.2,5.4,2.7,11.5,3.2,17.3,1.3,5.7-1.9,10.4-5.9,13.2-11.3,2.7-5.4,3.2-11.5,1.3-17.3M701.8,379.9c-3.8,7.5-10.3,13.1-18.3,15.7-3.2,1-6.5,1.6-9.8,1.6-4.9,0-9.8-1.2-14.3-3.4-7.5-3.8-13.1-10.3-15.7-18.3-2.6-8-1.9-16.6,1.9-24.1,1.8-3.5,4.2-6.7,7.1-9.2l31.7-31.7h12.4l-23.7,23.7c5.1-.1,10.2,1,14.9,3.4,7.5,3.8,13.1,10.3,15.7,18.3,2.6,8,1.9,16.5-1.9,24.1"/>
      <polygon class="cls-2" points="768.8 318.7 745.5 318.7 753.8 310.3 777.1 310.3 768.8 318.7"/>
    </g>
    <g>
      <path class="cls-2" d="M651.2,282.5h-11.4l-9-23.3h-35.2l-9,23.3h-10.8l31.5-78.6h12.2l31.7,78.6ZM598.8,250.6h28.7l-12.1-31.4c-.5-1.3-.8-2.2-.9-2.6l-1.3-3.4c-1,2.9-1.8,4.9-2.2,5.9l-12.1,31.4Z"/>
      <path class="cls-2" d="M669.4,279.3c-2.8-2.5-4.3-6.6-4.3-12.2v-30.8h-10.2v-8h10.2v-17.8h9.5v17.8h11.3v8h-11.3v29.7c0,3,.7,5.1,2.1,6.4,1.4,1.3,3.3,1.9,5.9,1.9s2.5-.1,4-.3v8.3c-2,.4-4.1.7-6.3.7-4.5,0-8.2-1.3-11-3.8Z"/>
      <path class="cls-2" d="M699.5,282.5v-78.6h9.7v31.8c1.5-2.6,3.8-4.8,6.8-6.5,3-1.7,6.3-2.6,9.8-2.6,6.3,0,11.2,1.9,14.7,5.7,3.5,3.8,5.3,9.1,5.3,16.1v34.1h-9.7v-32.9c0-5.2-1-9.1-2.9-11.6-1.9-2.5-5.1-3.8-9.3-3.8s-8.1,1.5-10.7,4.5c-2.7,3-4,6.8-4,11.2v32.5h-9.7Z"/>
      <path class="cls-2" d="M771,282.5h-9.7v-78.6h9.7v78.6Z"/>
      <path class="cls-2" d="M793.4,276.7c-4.7-5-7-12.2-7-21.4s1.1-10.4,3.3-14.7c2.2-4.3,5.3-7.7,9.2-10.2,3.9-2.5,8.3-3.7,13.2-3.7,7.9,0,14.1,2.6,18.5,7.7,4.4,5.2,6.6,12.2,6.6,21v1.9h-41c0,6,1.7,10.7,4.8,14.2,3.1,3.5,7.1,5.2,11.8,5.2s6.8-.8,9.4-2.5c2.6-1.7,4.2-4.5,4.8-8.4h9.7c-.7,5.2-3,9.6-7.1,13.1-4.1,3.5-9.7,5.3-16.9,5.3s-14.6-2.5-19.2-7.5ZM826.8,250.4c0-4.9-1.3-8.9-3.8-11.8-2.5-2.9-6.2-4.4-10.9-4.4s-8,1.5-10.9,4.6c-2.8,3.1-4.5,6.9-4.8,11.6h30.4Z"/>
      <path class="cls-2" d="M860.1,279.3c-2.8-2.5-4.3-6.6-4.3-12.2v-30.8h-10.2v-8h10.2v-17.8h9.5v17.8h11.3v8h-11.3v29.7c0,3,.7,5.1,2.1,6.4,1.4,1.3,3.3,1.9,5.9,1.9s2.5-.1,4-.3v8.3c-2,.4-4.1.7-6.3.7-4.5,0-8.2-1.3-11-3.8Z"/>
      <path class="cls-2" d="M893.3,276.7c-4.7-5-7-12.2-7-21.4s1.1-10.4,3.3-14.7c2.2-4.3,5.3-7.7,9.2-10.2,3.9-2.5,8.3-3.7,13.2-3.7,7.9,0,14.1,2.6,18.5,7.7,4.4,5.2,6.6,12.2,6.6,21v1.9h-41c0,6,1.7,10.7,4.8,14.2,3.1,3.5,7.1,5.2,11.8,5.2s6.8-.8,9.4-2.5c2.6-1.7,4.2-4.5,4.8-8.4h9.7c-.7,5.2-3,9.6-7.1,13.1-4.1,3.5-9.7,5.3-16.9,5.3s-14.6-2.5-19.2-7.5ZM926.7,250.4c0-4.9-1.3-8.9-3.8-11.8-2.5-2.9-6.2-4.4-10.9-4.4s-8,1.5-10.9,4.6c-2.8,3.1-4.5,6.9-4.8,11.6h30.4Z"/>
    </g>
  </g>
</svg>