<?xml version="1.0" encoding="UTF-8"?>
<svg id="Layer_3" data-name="Layer 3" xmlns="http://www.w3.org/2000/svg" version="1.1" viewBox="0 0 1024 600">
  <defs>
    <style>
      .cls-1 {
        fill: #00a651;
      }

      .cls-1, .cls-2, .cls-3, .cls-4, .cls-5 {
        stroke-width: 0px;
      }

      .cls-2 {
        fill: #000;
      }

      .cls-3 {
        fill: #0078d0;
      }

      .cls-4 {
        fill: #ffb114;
      }

      .cls-5 {
        fill: #f0282d;
      }
    </style>
  </defs>
  <g id="Lockup-2">
    <path class="cls-2" d="M591,243.9v-52.2h6.9v52.2h-6.9Z"/>
    <path class="cls-2" d="M609.8,243.9v-36h6.4v4.9c2.5-3.7,6.6-6,11-6,8.4,0,13.3,5.2,13.3,14.5v22.7h-6.4v-21.9c0-6.8-2.2-10.2-7.8-10.2-5.4,0-9.9,4.2-10,9.7,0,.3,0,.5,0,.8v21.7h-6.5Z"/>
    <path class="cls-2" d="M653.2,233.6v-20.5h-6.8v-5.2h6.8v-11.9h6.4v11.9h7.5v5.2h-7.5v19.8c0,4.2,2.1,5.5,5.2,5.5.9,0,1.7,0,2.6-.2v5.5c-1.4.3-2.8.4-4.2.4-5.2,0-10-2.6-10-10.6Z"/>
    <path class="cls-2" d="M672.2,225.7c0-11,7.3-19,17.1-19s16.6,7.5,16.6,19.1v1.3h-27.3c0,8.2,4.9,12.9,11.1,12.9s8.6-1.7,9.5-7.3h6.5c-.8,6.4-5.7,12.3-16,12.3s-17.6-6.8-17.6-19.3ZM699.1,222.5c0-6.4-3.4-10.8-9.8-10.8s-9.9,4.7-10.4,10.8h20.2Z"/>
    <path class="cls-2" d="M714.5,243.9v-36h6.4v6c1.9-4.5,6.4-7.3,11.3-7.1h1.6v6.4c-.7-.1-1.3-.2-2-.2-6.9,0-10.9,3.9-10.9,11.9v19h-6.4Z"/>
    <path class="cls-2" d="M740.2,243.9v-36h6.4v4.9c2.5-3.7,6.6-6,11-6,8.4,0,13.3,5.2,13.3,14.5v22.7h-6.4v-21.9c0-6.8-2.2-10.2-7.8-10.2-5.4,0-9.9,4.2-10,9.7,0,.3,0,.5,0,.8v21.7h-6.5Z"/>
    <path class="cls-2" d="M779.2,234c0-7.1,5.6-10.2,11.9-11.2l7.8-1.2c2.6-.4,3.6-1.6,3.6-3.5,0-4-3.3-6.3-7.6-6.3s-8.1,2.9-8.3,7.4h-6.4c.2-6.5,5.4-12.4,14.5-12.4s14,5.2,14,13.6v23.5h-6.1v-4.9c-1.7,3.7-5.7,6-11.1,6-6.8.1-12.2-4.1-12.2-10.9ZM802.7,230.3v-5.1c-1.2.9-2.6,1.4-4.1,1.4l-5.2.9c-4.3.8-7.5,2.6-7.5,6.5,0,3.3,2.7,6,6.1,6,.2,0,.3,0,.5,0,5.3.3,9.9-3.7,10.2-9,0-.3,0-.5,0-.8h0Z"/>
    <path class="cls-2" d="M821.3,233.6v-20.5h-6.8v-5.2h6.8v-11.9h6.3v11.9h7.5v5.2h-7.5v19.8c0,4.2,2.1,5.5,5.2,5.5.9,0,1.7,0,2.6-.2v5.5c-1.4.3-2.8.4-4.2.4-5.2,0-10-2.6-10-10.6Z"/>
    <path class="cls-2" d="M842.5,201.1v-7.7h7.4v7.7h-7.4ZM843,243.9v-36h6.4v36h-6.4Z"/>
    <path class="cls-2" d="M857.9,225.8c0-11.2,7.3-19.1,17.7-19.1s17.7,7.8,17.7,19.1-7.3,19.2-17.7,19.2-17.7-7.7-17.7-19.2ZM886.6,225.8c0-8.4-4.3-14-11.1-14s-11,5.6-11,14,4.2,14.2,11,14.2,11.1-5.7,11.1-14.2h0Z"/>
    <path class="cls-2" d="M901.7,243.9v-36h6.4v4.9c2.5-3.7,6.6-6,11-6,8.4,0,13.3,5.2,13.3,14.5v22.7h-6.4v-21.9c0-6.8-2.2-10.2-7.8-10.2-5.4,0-9.9,4.2-10,9.7,0,.3,0,.5,0,.8v21.7h-6.5Z"/>
    <path class="cls-2" d="M940.6,234c0-7.1,5.6-10.2,12-11.2l7.8-1.2c2.6-.4,3.6-1.6,3.6-3.5,0-4-3.3-6.3-7.6-6.3s-8.1,2.9-8.3,7.4h-6.4c.2-6.5,5.4-12.4,14.5-12.4s14,5.2,14,13.6v23.5h-6v-4.9c-1.7,3.7-5.7,6-11.1,6-6.8.1-12.4-4.1-12.4-10.9ZM964.1,230.3v-5.1c-1.2.9-2.6,1.4-4.1,1.4l-5.2.9c-4.3.8-7.5,2.6-7.5,6.5,0,3.3,2.7,6,6,6,.2,0,.4,0,.5,0,5.3.4,9.9-3.5,10.3-8.8,0-.3,0-.6,0-.9Z"/>
    <path class="cls-2" d="M980.6,243.9v-52.2h6.4v52.2h-6.4Z"/>
    <path class="cls-2" d="M587.9,300c0-16.4,10.6-27.3,24.7-27.3s24.8,10.9,24.8,27.3-10.8,27.3-24.8,27.3-24.7-10.8-24.7-27.3ZM630.2,300c0-13.4-7.2-21.6-17.6-21.6s-17.6,8.2-17.6,21.6,7,21.6,17.6,21.6,17.6-8.2,17.6-21.6h0Z"/>
    <path class="cls-2" d="M646.2,326.1v-52.2h6.4v52.2h-6.4Z"/>
    <path class="cls-2" d="M660.8,342.7v-5.9c1,.3,2,.5,3.1.4,3.1.2,5.9-1.9,6.6-4.9l2.7-7.5-14.4-34.8h7.2l9,23.1c.5,1.4,1,2.8,1.6,4.2.4-1.4,1-2.6,1.5-4.3l7.8-23h6.8l-16.5,44.4c-2.6,6.5-6.5,8.7-11.7,8.7-1.2,0-2.5-.2-3.7-.5Z"/>
    <path class="cls-2" d="M699.1,326.1v-36h6.4v4.9c2.2-3.7,6.1-6,10.4-6.1,4.8-.2,9.1,2.7,10.8,7.1,2.4-4.3,6.9-7,11.8-7.1,7.2,0,12.6,4.5,12.6,14.4v22.8h-6.2v-21.5c0-6.8-2.1-10.6-7.6-10.6s-8.9,4.9-8.9,10.7v21.4h-6.4v-21.3c0-6.9-2.1-10.8-7.4-10.8s-9,5-9,11v21.1h-6.5Z"/>
    <path class="cls-2" d="M761.6,341.9v-51.8h6.4v4.9c2.7-3.9,7.1-6.2,11.9-6.1,10.4,0,16.6,8.1,16.6,19.1s-6.8,19.2-16.7,19.2c-4.7.2-9.2-2.1-11.7-6.1v20.9h-6.4ZM789.7,308c0-8.3-4.3-14-10.9-14s-11.2,5.5-11.2,14,4.5,14.2,11.2,14.2,10.9-5.7,10.9-14.1h0Z"/>
    <path class="cls-2" d="M804.4,283.4v-7.8h7.4v7.8h-7.4ZM804.9,326.1v-36h6.4v36h-6.4Z"/>
    <path class="cls-2" d="M819.7,308.1c0-11.4,7.8-19.1,18.3-19.1s14.9,5.2,15.7,13.3h-6.6c-.4-4.8-4.4-8.4-9.2-8.2-6.9,0-11.4,6.1-11.4,14s4.6,14.2,11.5,14.2c4.9.4,9.2-3.3,9.5-8.2,0,0,0,0,0,0h6.3c-.7,7.8-6.3,13.2-16.2,13.2s-17.9-6.4-17.9-19.2Z"/>
    <path class="cls-2" d="M587.9,382c0-16.3,10.8-27,25.2-27s21.3,7.8,22.2,18.1h-7.4c-.9-7.5-7.6-12.9-15.2-12.3-10.6,0-17.7,8.1-17.7,21.3s7.4,21.9,17.7,21.9c7.6.6,14.3-4.8,15.5-12.3h7.1c-1.4,11.1-10.1,18-22.5,18s-25-10.5-25-27.6Z"/>
    <path class="cls-2" d="M641.1,390.4c0-11.2,7.3-19.1,17.7-19.1s17.7,7.8,17.7,19.1-7.3,19.2-17.7,19.2-17.7-7.7-17.7-19.2ZM669.8,390.4c0-8.4-4.3-14-11.1-14s-11,5.6-11,14,4.2,14.2,11,14.2,11.1-5.7,11.1-14.2h0Z"/>
    <path class="cls-2" d="M684.9,408.4v-36h6.4v4.9c2.2-3.7,6.1-6,10.4-6.1,4.7-.2,9.1,2.7,10.8,7.1,2.4-4.3,6.9-7,11.8-7.1,7.2,0,12.6,4.5,12.6,14.4v22.8h-6.3v-21.5c0-6.8-2.1-10.6-7.6-10.6s-8.9,4.9-8.9,10.7v21.4h-6.4v-21.3c0-6.9-2.1-10.8-7.4-10.8s-9,5-9,11v21.1h-6.3Z"/>
    <path class="cls-2" d="M747.5,408.4v-36h6.4v4.9c2.2-3.7,6.1-6,10.4-6.1,4.7-.1,9.1,2.7,10.8,7.1,2.4-4.3,6.9-7,11.8-7.1,7.2,0,12.6,4.5,12.6,14.4v22.8h-6.4v-21.5c0-6.8-2.1-10.6-7.6-10.6s-8.9,4.9-8.9,10.7v21.4h-6.4v-21.3c0-6.9-2.1-10.8-7.4-10.8s-9.1,5-9.1,11v21.1h-6.3Z"/>
    <path class="cls-2" d="M809.4,365.8v-7.8h7.4v7.8h-7.4ZM810,408.6v-36.1h6.4v36h-6.4Z"/>
    <path class="cls-2" d="M829.7,398.2v-20.5h-6.8v-5.2h6.8v-12h6.3v11.9h7.5v5.2h-7.5v19.8c0,4.2,2.1,5.5,5.2,5.5.9,0,1.7,0,2.6-.2v5.5c-1.4.3-2.8.5-4.2.4-5.2.1-10-2.5-10-10.5Z"/>
    <path class="cls-2" d="M854.1,398.2v-20.5h-6.8v-5.2h6.8v-12h6.3v11.9h7.5v5.2h-7.5v19.8c0,4.2,2.1,5.5,5.2,5.5.9,0,1.7,0,2.6-.2v5.5c-1.4.3-2.8.5-4.2.4-5.2.1-10-2.5-10-10.5Z"/>
    <path class="cls-2" d="M873.1,390.3c0-11.1,7.2-19,17.1-19s16.6,7.5,16.6,19.1v1.3h-27.2c0,8.2,4.9,12.9,11,12.9s8.6-1.7,9.5-7.2h6.5c-.8,6.3-5.8,12.2-16,12.2-10.9,0-17.6-6.8-17.6-19.3ZM900,387.1c0-6.4-3.4-10.8-9.8-10.8s-9.9,4.7-10.4,10.8h20.2Z"/>
    <path class="cls-2" d="M913.2,390.3c0-11.1,7.2-19,17.1-19s16.6,7.5,16.6,19.1v1.3h-27.1c0,8.2,4.9,12.9,11,12.9s8.6-1.7,9.5-7.2h6.4c-.8,6.3-5.8,12.2-16,12.2-11,0-17.6-6.8-17.6-19.3ZM940,387.1c0-6.4-3.4-10.8-9.8-10.8s-9.9,4.7-10.4,10.8h20.2Z"/>
    <g id="Olympic_rings" data-name="Olympic rings">
      <path id="Red_ring" data-name="Red ring" class="cls-5" d="M512.9,265.5c0,41.5-33.6,75.2-75.1,75.2-39,0-71.5-29.8-74.9-68.6,4.4.5,8.8,1.4,13,2.7,5.1,34.3,37,58,71.3,52.9,34.3-5.1,58-37,52.9-71.3-5.1-34.3-37-58-71.3-52.9-29.3,4.3-51.6,28.5-53.5,58.1-4.1-1.1-8.2-1.8-12.4-2.1,3.5-41.4,39.8-72.1,81.2-68.7,38.9,3.2,68.8,35.6,68.9,74.6h-.1Z"/>
      <path id="Green_ring" data-name="Green ring" class="cls-1" d="M356.4,271.9c31,0,57.3,22.7,61.9,53.3,4.2,1.4,8.5,2.3,12.9,2.7-3.4-38.8-35.9-68.5-74.8-68.5-2.2,0-4.4,0-6.5.3,0,2,.2,3.9.2,6s0,4.4-.3,6.6c2.2-.2,4.4-.3,6.6-.3ZM418.8,338.3c-2.1,34.5-31.9,60.8-66.4,58.6-34.5-2.1-60.8-31.9-58.6-66.4,1.6-25.6,18.6-47.6,43-55.6.5-3.1.7-6.2.7-9.3v-3.9c-40.2,10.4-64.3,51.4-53.9,91.6,10.4,40.2,51.4,64.3,91.6,53.9,31-8,53.5-34.8,56-66.8-4.2-.4-8.4-1.1-12.5-2.1Z"/>
      <path id="Black_ring" data-name="Black ring" class="cls-2" d="M275,190.4c-39.2,0-71.8,30.1-74.9,69.2,4.2.4,8.3,1.1,12.4,2.1,2.1-34.5,31.9-60.8,66.4-58.6,34.5,2.1,60.8,31.9,58.6,66.4-1.6,25.6-18.6,47.6-43,55.6-.5,3.1-.7,6.2-.7,9.3v3.9c40.2-10.4,64.3-51.4,53.9-91.6-8.6-33.2-38.5-56.3-72.8-56.3h.1ZM275,328.2c-31,0-57.3-22.6-61.9-53.3-4.2-1.4-8.5-2.3-12.9-2.7,3.4,38.8,35.9,68.5,74.9,68.5,2.2,0,4.4,0,6.5-.3-.1-2-.2-4-.2-6s.1-4.4.3-6.6c-2.2.2-4.4.3-6.6.3h0Z"/>
      <path id="Yellow_ring" data-name="Yellow ring" class="cls-4" d="M187,272.2c.2-2.2.3-4.4.3-6.6s0-4-.2-6c2.1-.2,4.3-.3,6.5-.3,38.9,0,71.4,29.8,74.9,68.5-4.4-.5-8.8-1.4-13-2.7-4.6-30.6-30.9-53.2-61.8-53.3-2.2,0-4.4,0-6.6.3h0ZM268.5,340.4c-3.3,41.4-39.5,72.2-80.9,68.9-41.4-3.3-72.2-39.5-68.9-80.9,2.6-31.9,25-58.7,56-66.7v3.9c0,3.1-.2,6.2-.7,9.3-32.9,10.8-50.8,46.1-40,79,10.8,32.9,46.1,50.8,79,40,24.4-8,41.4-30,43-55.6,4.1,1,8.3,1.7,12.5,2.1h0Z"/>
      <path id="Blue_ring" data-name="Blue ring" class="cls-3" d="M187.3,265.5c0-41.5-33.6-75.1-75.1-75.1s-75.1,33.6-75.1,75.1c0,41.5,33.6,75.1,75.1,75.1h0c2.2,0,4.4,0,6.5-.3-.1-2-.2-4-.2-6s.1-4.4.3-6.6c-2.2.2-4.4.3-6.5.3-34.6-.1-62.5-28.3-62.4-62.8.1-34.6,28.3-62.5,62.8-62.4,34.6.1,62.5,28.3,62.4,62.8,0,27-17.5,50.9-43.2,59.3-.5,3.1-.7,6.2-.7,9.3v3.9c33.1-8.6,56.2-38.5,56.2-72.7Z"/>
    </g>
  </g>
</svg>